<!DOCTYPE html><svg xmlns="http://www.w3.org/2000/svg" width="100" height="101"><g fill="none" fill-rule="evenodd"><path d="M.676 1.833h98.648v98.649H.676z"/><path stroke="#1E1E1E" stroke-width="3" d="M91 37.049v34.784a3 3 0 0 1-3 3H6a3 3 0 0 1-3-3v-47a3 3 0 0 1 3-3h55.65"/><path fill="#1E1E1E" d="M17.5 81.833h59a1.5 1.5 0 0 1 0 3h-59a1.5 1.5 0 0 1 0-3z"/><path stroke="#1E1E1E" stroke-linecap="round" stroke-linejoin="round" stroke-width="2" d="M31 61.833l9-14.25 6.75 7.125 9-11.875 11.25 19zm9-25.5c0-2.486 2.014-4.5 4.5-4.5s4.5 2.014 4.5 4.5c0 2.487-2.014 4.5-4.5 4.5a4.499 4.499 0 0 1-4.5-4.5z"/><path fill="#FFAC2F" d="M82 30.833h-3.752v-5.027h-4.496v5.027H70v-13h3.752v4.937h4.496v-4.937H82v13zm2-13h5.643c4.006 0 6.357 2.244 6.357 6.406 0 4.162-2.36 6.594-6.357 6.594H84v-13zm4 3v7h1.167c1.86 0 2.833-1.174 2.833-3.595 0-2.212-1.053-3.405-2.833-3.405H88z"/></g></svg>