<!DOCTYPE html><svg xmlns="http://www.w3.org/2000/svg" width="100" height="100"><g fill="none" fill-rule="evenodd"><g stroke-linecap="round" stroke-linejoin="round"><path stroke="#1E1E1E" stroke-width="2" d="M83.524 18.33L62.19 14.566c-4.91-.865-9.595 2.436-10.466 7.373-.87 4.938 2.404 9.643 7.313 10.508 3.644.643 7.032-.775 8.96-3.687l5.216.92c.817 3.396 3.517 5.887 7.16 6.53 4.91.865 9.595-2.436 10.465-7.374.871-4.937-2.402-9.642-7.313-10.508z"/><path stroke="#FFAC2F" stroke-width="2" d="M61.254 20.164l-1.379 7.823m-3.682-5.258l7.823 1.379"/><path stroke="#1E1E1E" d="M80.976 25.946l2.63-1.84m-2.3 6.508l2.629-1.841"/></g><path stroke="#1E1E1E" stroke-linecap="round" stroke-linejoin="round" d="M19.843 35.167l6.417 4.783 6.416-4.783M8.76 52.55l6.533-4.667-2.567-7.466m9.1 28l-2.566-7.584h-7.817m29.633 0H33.26l-2.567 7.584m9.1-28l-2.567 7.466 6.534 4.667"/><path stroke="#1E1E1E" stroke-linecap="round" stroke-linejoin="round" stroke-width="2" d="M26.26 34c9.664 0 17.5 7.835 17.5 17.5S35.924 69 26.26 69c-9.665 0-17.5-7.835-17.5-17.5S16.595 34 26.26 34z"/><path stroke="#1E1E1E" d="M38.014 47.927l-5.796 2.237M26.26 39.5v6.273M15.643 47.49l5.769 3.272"/><path fill="#FFAC2F" d="M29.76 56.167h-7l-2.917-6.3 6.417-4.784 6.416 4.784z"/><path stroke="#1E1E1E" d="M19.445 61.187l3.898-5.604M29.5 55.5l3.58 4.992"/><path fill="#FFAC2F" d="M58.066 71.805a2.5 2.5 0 0 1 5 0 2.5 2.5 0 0 1-5 0z"/><path stroke="#1E1E1E" stroke-linecap="round" stroke-linejoin="round" stroke-width="1.8" d="M74.043 73.141v-7H53.377v20h20.666v-7l10.334 5v-16z"/><path stroke="#1E1E1E" stroke-width="2" d="M41.453 17.127c-6.95 3.492-11.68 6.984-14.193 10.477M32.752 73c5.652 6.213 10.383 9.32 14.193 9.32m38.298-26.214c2.626-3.29 3.939-8.094 3.939-14.415"/></g></svg>