<!DOCTYPE html><svg xmlns="http://www.w3.org/2000/svg" width="96" height="96" viewBox="0 0 96 96" fill="none">
<circle cx="48" cy="48" r="48" fill="#FFE9B2"/>
<path d="M55.5281 21.002C53.1785 16.9741 47.9759 15.5476 43.948 17.8972C42.6893 18.6524 41.5984 19.7433 40.8432 21.002L17.9347 60.6933C15.5851 64.7211 17.0116 69.9238 21.0395 72.2734C22.2982 73.0286 23.8087 73.4482 25.3191 73.4482H71.22C75.9192 73.4482 79.6953 69.6721 79.6953 64.9729C79.6953 63.4624 79.2758 62.0359 78.5205 60.6933L55.5281 21.002ZM48.2276 66.6511C46.3815 66.6511 44.8711 65.1407 44.8711 63.2946C44.8711 61.4485 46.3815 59.938 48.2276 59.938C50.0737 59.938 51.5842 61.4485 51.5842 63.2946C51.5842 65.1407 50.0737 66.6511 48.2276 66.6511ZM51.5842 51.3788C51.5842 53.2249 50.0737 54.7354 48.2276 54.7354C46.3815 54.7354 44.8711 53.2249 44.8711 51.3788V31.9108C44.8711 30.0647 46.3815 28.5542 48.2276 28.5542C50.0737 28.5542 51.5842 30.0647 51.5842 31.9108V51.3788Z" fill="#FFA217"/>
</svg>