<!DOCTYPE html><svg xmlns="http://www.w3.org/2000/svg" width="40" height="40" viewBox="0 0 40 40" fill="none">
<path d="M26.6207 5.10352H13.3794L5.10352 14.4828L7.31041 26.6207L20.0001 34.8966L32.6897 26.6207L34.8966 14.4828L26.6207 5.10352Z" fill="#FFBB0D"/>
<path fill-rule="evenodd" clip-rule="evenodd" d="M12.5519 4.37341C12.7614 4.136 13.0627 4 13.3793 4H26.6207C26.9373 4 27.2386 4.136 27.4481 4.37341L35.724 13.7527C35.9475 14.006 36.0426 14.3477 35.9822 14.6802L33.7753 26.8181C33.721 27.1164 33.5464 27.3793 33.2925 27.5449L20.6028 35.8208C20.2365 36.0597 19.7636 36.0597 19.3972 35.8208L6.70759 27.5449C6.45358 27.3793 6.27896 27.1164 6.22472 26.8181L4.01783 14.6802C3.95736 14.3477 4.05253 14.006 4.27603 13.7527L12.5519 4.37341ZM7.31035 26.6207L5.10345 14.4828L13.3793 5.10345H26.6207L34.8965 14.4828L32.6896 26.6207L20 34.8965L7.31035 26.6207Z" fill="#E89B05"/>
<path fill-rule="evenodd" clip-rule="evenodd" d="M33.8918 14.3484C34.1916 14.4029 34.3905 14.6901 34.336 14.9899L32.2925 26.2287C32.2654 26.3779 32.1781 26.5093 32.0511 26.5922L20.3014 34.255C20.0462 34.4214 19.7044 34.3494 19.5379 34.0942C19.3715 33.839 19.4434 33.4971 19.6986 33.3307L31.2494 25.7976L33.2503 14.7925C33.3048 14.4927 33.592 14.2938 33.8918 14.3484Z" fill="#EEAD04"/>
<path fill-rule="evenodd" clip-rule="evenodd" d="M13.456 5.84198C13.5608 5.72325 13.7114 5.65527 13.8697 5.65527H26.1302C26.435 5.65527 26.682 5.90228 26.682 6.207C26.682 6.51171 26.435 6.75872 26.1302 6.75872H14.1187L6.79756 15.056L8.79314 26.0316C8.84765 26.3315 8.64881 26.6187 8.349 26.6732C8.0492 26.7277 7.76197 26.5289 7.70746 26.2291L5.66404 14.9902C5.63386 14.824 5.68142 14.6532 5.7932 14.5265L13.456 5.84198Z" fill="#FFD15C"/>
<path d="M24.9041 8.96533H15.0957L8.96545 15.913L10.6002 24.904L19.9999 31.0343L29.3997 24.904L31.0344 15.913L24.9041 8.96533Z" fill="#FFDD28"/>
<path fill-rule="evenodd" clip-rule="evenodd" d="M14.2684 8.23571C14.4778 7.9983 14.7792 7.8623 15.0958 7.8623H24.9042C25.2208 7.8623 25.5221 7.9983 25.7316 8.23571L31.8619 15.1833C32.0854 15.4366 32.1806 15.7784 32.1201 16.1108L30.4854 25.1019C30.4312 25.4002 30.2565 25.6631 30.0025 25.8287L20.6028 31.959C20.2365 32.1979 19.7636 32.1979 19.3972 31.959L9.99746 25.8287C9.7435 25.6631 9.56888 25.4002 9.51459 25.1019L7.87989 16.1108C7.81942 15.7784 7.91459 15.4366 8.13809 15.1833L14.2684 8.23571ZM10.6003 24.9044L8.96551 15.9134L15.0958 8.96575H24.9042L31.0345 15.9134L29.3998 24.9044L20 31.0347L10.6003 24.9044Z" fill="#E89B05"/>
<path fill-rule="evenodd" clip-rule="evenodd" d="M30.0298 15.7795C30.3296 15.834 30.5284 16.1212 30.4739 16.421L29.0026 24.513C28.9755 24.6622 28.8882 24.7936 28.7612 24.8764L20.3014 30.3936C20.0462 30.5601 19.7044 30.4881 19.5379 30.2329C19.3715 29.9777 19.4434 29.6358 19.6986 29.4694L27.9595 24.0819L29.3882 16.2236C29.4427 15.9238 29.73 15.725 30.0298 15.7795Z" fill="#ECC704"/>
<path fill-rule="evenodd" clip-rule="evenodd" d="M15.1725 9.70379C15.2772 9.58506 15.4279 9.51709 15.5862 9.51709H24.4138C24.7185 9.51709 24.9655 9.7641 24.9655 10.0688C24.9655 10.3735 24.7185 10.6205 24.4138 10.6205H15.8352L10.6596 16.4861L12.083 24.3149C12.1375 24.6147 11.9387 24.902 11.6389 24.9565C11.3391 25.011 11.0519 24.8121 10.9974 24.5123L9.5261 16.4204C9.49592 16.2542 9.54348 16.0833 9.65526 15.9566L15.1725 9.70379Z" fill="#FFEF9C"/>
<path d="M21.3168 23.3105H19.4483V16.1079L17.2177 16.7997V15.2803L21.1164 13.8838H21.3168V23.3105Z" fill="#FFEF9C"/>
<path fill-rule="evenodd" clip-rule="evenodd" d="M22.4203 23.3104C22.4203 23.9199 21.9263 24.4139 21.3168 24.4139H19.4483C18.8389 24.4139 18.3449 23.9199 18.3449 23.3104V17.6054L17.5446 17.8536C17.2097 17.9574 16.8454 17.896 16.5631 17.688C16.2809 17.48 16.1143 17.1503 16.1143 16.7996V15.2802C16.1143 14.8143 16.4069 14.3986 16.8456 14.2415L20.7443 12.8449C20.8637 12.8021 20.9896 12.7803 21.1164 12.7803H21.3168C21.9263 12.7803 22.4203 13.2743 22.4203 13.8837V23.3104ZM19.4483 16.1078V23.3104H21.3168V13.8837H21.1164L17.2177 15.2802V16.7996L19.4483 16.1078Z" fill="#E89B05"/>
</svg>