<!DOCTYPE html><svg xmlns="http://www.w3.org/2000/svg" width="40" height="40" viewBox="0 0 40 40" fill="none">
<path d="M26.6206 5.10352H13.3792L5.10339 14.4828L7.31029 26.6207L19.9999 34.8966L32.6896 26.6207L34.8965 14.4828L26.6206 5.10352Z" fill="#BCCCD2"/>
<path fill-rule="evenodd" clip-rule="evenodd" d="M12.5519 4.37341C12.7614 4.136 13.0627 4 13.3793 4H26.6207C26.9372 4 27.2386 4.136 27.4481 4.37341L35.7239 13.7527C35.9474 14.006 36.0426 14.3477 35.9822 14.6802L33.7753 26.8181C33.721 27.1164 33.5464 27.3793 33.2924 27.5449L20.6028 35.8208C20.2365 36.0597 19.7636 36.0597 19.3972 35.8208L6.70759 27.5449C6.45357 27.3793 6.27895 27.1164 6.22472 26.8181L4.01783 14.6802C3.95736 14.3477 4.05253 14.006 4.27603 13.7527L12.5519 4.37341ZM7.31035 26.6207L5.10345 14.4828L13.3793 5.10345H26.6207L34.8965 14.4828L32.6896 26.6207L20 34.8965L7.31035 26.6207Z" fill="#81A5B0"/>
<path fill-rule="evenodd" clip-rule="evenodd" d="M33.8918 14.3484C34.1916 14.4029 34.3905 14.6901 34.336 14.9899L32.2925 26.2287C32.2654 26.3779 32.1781 26.5093 32.0511 26.5922L20.3014 34.255C20.0462 34.4214 19.7044 34.3494 19.5379 34.0942C19.3715 33.839 19.4434 33.4971 19.6986 33.3307L31.2494 25.7976L33.2503 14.7925C33.3048 14.4927 33.592 14.2938 33.8918 14.3484Z" fill="#A2B9C1"/>
<path fill-rule="evenodd" clip-rule="evenodd" d="M13.456 5.84198C13.5607 5.72325 13.7114 5.65527 13.8697 5.65527H26.1302C26.4349 5.65527 26.6819 5.90228 26.6819 6.207C26.6819 6.51171 26.4349 6.75872 26.1302 6.75872H14.1187L6.79756 15.056L8.79314 26.0316C8.84765 26.3315 8.64881 26.6187 8.349 26.6732C8.0492 26.7277 7.76197 26.5289 7.70746 26.2291L5.66404 14.9902C5.63386 14.824 5.68142 14.6532 5.7932 14.5265L13.456 5.84198Z" fill="#D0DEE3"/>
<path d="M24.9041 8.96533H15.0957L8.96545 15.913L10.6002 24.904L19.9999 31.0343L29.3996 24.904L31.0344 15.913L24.9041 8.96533Z" fill="#D2E2E7"/>
<path fill-rule="evenodd" clip-rule="evenodd" d="M14.2684 8.23571C14.4778 7.9983 14.7792 7.8623 15.0958 7.8623H24.9042C25.2208 7.8623 25.5221 7.9983 25.7316 8.23571L31.8619 15.1833C32.0854 15.4366 32.1805 15.7784 32.1201 16.1108L30.4854 25.1019C30.4311 25.4002 30.2565 25.6631 30.0025 25.8287L20.6028 31.959C20.2365 32.1979 19.7636 32.1979 19.3972 31.959L9.99746 25.8287C9.7435 25.6631 9.56888 25.4002 9.51459 25.1019L7.87989 16.1108C7.81942 15.7784 7.91459 15.4366 8.13809 15.1833L14.2684 8.23571ZM10.6003 24.9044L8.96551 15.9134L15.0958 8.96575H24.9042L31.0345 15.9134L29.3998 24.9044L20 31.0347L10.6003 24.9044Z" fill="#81A5B0"/>
<path fill-rule="evenodd" clip-rule="evenodd" d="M30.0298 15.7795C30.3296 15.834 30.5284 16.1212 30.4739 16.421L29.0026 24.513C28.9755 24.6622 28.8882 24.7936 28.7612 24.8764L20.3014 30.3936C20.0462 30.5601 19.7044 30.4881 19.5379 30.2329C19.3715 29.9777 19.4434 29.6358 19.6986 29.4694L27.9595 24.0819L29.3882 16.2236C29.4427 15.9238 29.73 15.725 30.0298 15.7795Z" fill="#BAD0D7"/>
<path fill-rule="evenodd" clip-rule="evenodd" d="M15.1725 9.70379C15.2772 9.58506 15.4279 9.51709 15.5862 9.51709H24.4138C24.7185 9.51709 24.9655 9.7641 24.9655 10.0688C24.9655 10.3735 24.7185 10.6205 24.4138 10.6205H15.8352L10.6596 16.4861L12.083 24.3149C12.1375 24.6147 11.9387 24.902 11.6389 24.9565C11.3391 25.011 11.0519 24.8121 10.9974 24.5123L9.5261 16.4204C9.49592 16.2542 9.54348 16.0833 9.65526 15.9566L15.1725 9.70379Z" fill="#E1F4FA"/>
<path d="M23.2306 24.4137H16.778V23.1336L19.8232 19.8879C20.2413 19.431 20.5495 19.0323 20.7478 18.6917C20.9504 18.3512 21.0516 18.028 21.0516 17.7219C21.0516 17.3038 20.946 16.9762 20.7348 16.7391C20.5236 16.4978 20.2219 16.3771 19.8297 16.3771C19.4073 16.3771 19.0732 16.5236 18.8275 16.8168C18.5861 17.1055 18.4655 17.487 18.4655 17.9611H16.5905C16.5905 17.3878 16.7262 16.8642 16.9978 16.39C17.2737 15.9159 17.6616 15.5452 18.1616 15.2779C18.6616 15.0064 19.2284 14.8706 19.862 14.8706C20.8318 14.8706 21.584 15.1034 22.1184 15.5689C22.6573 16.0344 22.9267 16.6917 22.9267 17.5409C22.9267 18.0064 22.8059 18.4805 22.5646 18.9633C22.3232 19.4461 21.9094 20.0085 21.3232 20.6508L19.1831 22.9072H23.2306V24.4137Z" fill="#E6F7FD"/>
<path fill-rule="evenodd" clip-rule="evenodd" d="M24.3341 24.4137C24.3341 25.0231 23.84 25.5171 23.2306 25.5171H16.778C16.1686 25.5171 15.6746 25.0231 15.6746 24.4137V23.1335C15.6746 22.853 15.7814 22.583 15.9733 22.3785L19.0137 19.1379C19.4026 18.7125 19.6519 18.3809 19.7943 18.1364L19.7996 18.1275C19.9299 17.9084 19.9482 17.7789 19.9482 17.7218C19.9482 17.6039 19.9332 17.535 19.9223 17.5012C19.9204 17.4954 19.9187 17.4906 19.9171 17.4866C19.8995 17.4836 19.8712 17.4805 19.8297 17.4805C19.7472 17.4805 19.7126 17.4944 19.7057 17.4974C19.7013 17.4993 19.6984 17.5011 19.6952 17.5035C19.6919 17.5061 19.6845 17.5121 19.6737 17.5249C19.6375 17.5685 19.569 17.678 19.569 17.9611C19.569 18.5705 19.0749 19.0645 18.4655 19.0645H16.5905C15.9811 19.0645 15.4871 18.5705 15.4871 17.9611C15.4871 17.2052 15.6684 16.491 16.0403 15.8416L16.0441 15.835C16.4258 15.1788 16.9656 14.6667 17.6382 14.3065C18.3168 13.9387 19.067 13.7671 19.8621 13.7671C20.9991 13.7671 22.0429 14.0405 22.8416 14.7353C23.6688 15.4509 24.0302 16.4396 24.0302 17.5408C24.0302 18.203 23.8574 18.8452 23.5516 19.4567C23.2457 20.0686 22.7567 20.717 22.1383 21.3946C22.1335 21.3998 22.1287 21.4049 22.1239 21.4101L21.7505 21.8037H23.2306C23.84 21.8037 24.3341 22.2978 24.3341 22.9072V24.4137ZM19.1832 22.9072L21.3232 20.6507C21.9095 20.0085 22.3232 19.446 22.5646 18.9632C22.806 18.4805 22.9267 18.0063 22.9267 17.5408C22.9267 16.6917 22.6573 16.0343 22.1185 15.5689C21.584 15.1033 20.8319 14.8705 19.8621 14.8705C19.2285 14.8705 18.6616 15.0063 18.1616 15.2779C17.6616 15.5451 17.2737 15.9158 16.9978 16.3899C16.9114 16.5408 16.8388 16.6967 16.7799 16.8576C16.6536 17.2024 16.5905 17.5702 16.5905 17.9611H18.4655C18.4655 17.4869 18.5862 17.1055 18.8276 16.8167C19.0733 16.5236 19.4073 16.377 19.8297 16.377C20.222 16.377 20.5237 16.4977 20.7349 16.7391C20.9461 16.9761 21.0517 17.3038 21.0517 17.7218C21.0517 18.0279 20.9504 18.3511 20.7479 18.6917C20.5496 19.0322 20.2414 19.4309 19.8233 19.8878L16.778 23.1335V24.4137H23.2306V22.9072H19.1832Z" fill="#81A5B0"/>
</svg>