<!DOCTYPE html><svg xmlns="http://www.w3.org/2000/svg" width="40" height="40" viewBox="0 0 40 40" fill="none">
<path d="M26.6206 5.10352H13.3792L5.10339 14.4828L7.31029 26.6207L19.9999 34.8966L32.6896 26.6207L34.8965 14.4828L26.6206 5.10352Z" fill="#DCA16A"/>
<path fill-rule="evenodd" clip-rule="evenodd" d="M12.5519 4.37341C12.7614 4.136 13.0627 4 13.3793 4H26.6207C26.9372 4 27.2386 4.136 27.4481 4.37341L35.7239 13.7527C35.9474 14.006 36.0426 14.3477 35.9822 14.6802L33.7753 26.8181C33.721 27.1164 33.5464 27.3793 33.2924 27.5449L20.6028 35.8208C20.2365 36.0597 19.7636 36.0597 19.3972 35.8208L6.70759 27.5449C6.45357 27.3793 6.27895 27.1164 6.22472 26.8181L4.01783 14.6802C3.95736 14.3477 4.05253 14.006 4.27603 13.7527L12.5519 4.37341ZM7.31035 26.6207L5.10345 14.4828L13.3793 5.10345H26.6207L34.8965 14.4828L32.6896 26.6207L20 34.8965L7.31035 26.6207Z" fill="#C38144"/>
<path fill-rule="evenodd" clip-rule="evenodd" d="M33.8918 14.3484C34.1916 14.4029 34.3905 14.6901 34.336 14.9899L32.2925 26.2287C32.2654 26.3779 32.1781 26.5093 32.0511 26.5922L20.3014 34.255C20.0462 34.4214 19.7044 34.3494 19.5379 34.0942C19.3715 33.839 19.4434 33.4971 19.6986 33.3307L31.2494 25.7976L33.2503 14.7925C33.3048 14.4927 33.592 14.2938 33.8918 14.3484Z" fill="#CF945D"/>
<path fill-rule="evenodd" clip-rule="evenodd" d="M13.456 5.84198C13.5607 5.72325 13.7114 5.65527 13.8697 5.65527H26.1302C26.4349 5.65527 26.6819 5.90228 26.6819 6.207C26.6819 6.51171 26.4349 6.75872 26.1302 6.75872H14.1187L6.79756 15.056L8.79314 26.0316C8.84765 26.3315 8.64881 26.6187 8.349 26.6732C8.0492 26.7277 7.76197 26.5289 7.70746 26.2291L5.66404 14.9902C5.63386 14.824 5.68142 14.6532 5.7932 14.5265L13.456 5.84198Z" fill="#F0B57F"/>
<path d="M24.9041 8.96533H15.0957L8.96545 15.913L10.6002 24.904L19.9999 31.0343L29.3996 24.904L31.0344 15.913L24.9041 8.96533Z" fill="#F7BA82"/>
<path fill-rule="evenodd" clip-rule="evenodd" d="M14.2684 8.23571C14.4778 7.9983 14.7792 7.8623 15.0958 7.8623H24.9042C25.2208 7.8623 25.5221 7.9983 25.7316 8.23571L31.8619 15.1833C32.0854 15.4366 32.1805 15.7784 32.1201 16.1108L30.4854 25.1019C30.4311 25.4002 30.2565 25.6631 30.0025 25.8287L20.6028 31.959C20.2365 32.1979 19.7636 32.1979 19.3972 31.959L9.99746 25.8287C9.7435 25.6631 9.56888 25.4002 9.51459 25.1019L7.87989 16.1108C7.81942 15.7784 7.91459 15.4366 8.13809 15.1833L14.2684 8.23571ZM10.6003 24.9044L8.96551 15.9134L15.0958 8.96575H24.9042L31.0345 15.9134L29.3998 24.9044L20 31.0347L10.6003 24.9044Z" fill="#C28044"/>
<path fill-rule="evenodd" clip-rule="evenodd" d="M30.0298 15.7795C30.3296 15.834 30.5284 16.1212 30.4739 16.421L29.0026 24.513C28.9755 24.6622 28.8882 24.7936 28.7612 24.8764L20.3014 30.3936C20.0462 30.5601 19.7044 30.4881 19.5379 30.2329C19.3715 29.9777 19.4434 29.6358 19.6986 29.4694L27.9595 24.0819L29.3882 16.2236C29.4427 15.9238 29.73 15.725 30.0298 15.7795Z" fill="#E5A66C"/>
<path fill-rule="evenodd" clip-rule="evenodd" d="M15.1725 9.70379C15.2772 9.58506 15.4279 9.51709 15.5862 9.51709H24.4138C24.7185 9.51709 24.9655 9.7641 24.9655 10.0688C24.9655 10.3735 24.7185 10.6205 24.4138 10.6205H15.8352L10.6596 16.4861L12.083 24.3149C12.1375 24.6147 11.9387 24.902 11.6389 24.9565C11.3391 25.011 11.0519 24.8121 10.9974 24.5123L9.5261 16.4204C9.49592 16.2542 9.54348 16.0833 9.65526 15.9566L15.1725 9.70379Z" fill="#FFD5AE"/>
<path d="M18.6789 18.8793H19.6746C20.1487 18.8793 20.5 18.7607 20.7285 18.5236C20.9569 18.2865 21.0711 17.9719 21.0711 17.5797C21.0711 17.2004 20.9569 16.9051 20.7285 16.6939C20.5044 16.4827 20.194 16.3771 19.7974 16.3771C19.4397 16.3771 19.1401 16.4762 18.8987 16.6745C18.6574 16.8685 18.5367 17.1228 18.5367 17.4374H16.6681C16.6681 16.946 16.7996 16.5064 17.0625 16.1184C17.3298 15.7262 17.7004 15.4202 18.1746 15.2004C18.6531 14.9805 19.1789 14.8706 19.7522 14.8706C20.7479 14.8706 21.528 15.1098 22.0927 15.5883C22.6574 16.0624 22.9397 16.7176 22.9397 17.5538C22.9397 17.9849 22.8082 18.3814 22.5453 18.7435C22.2823 19.1055 21.9375 19.3835 21.5108 19.5775C22.041 19.7672 22.4354 20.0517 22.694 20.4309C22.9569 20.8103 23.0884 21.2585 23.0884 21.7758C23.0884 22.612 22.7824 23.2822 22.1703 23.7866C21.5625 24.2908 20.7565 24.543 19.7522 24.543C18.8126 24.543 18.0431 24.2952 17.444 23.7995C16.8492 23.3038 16.5518 22.6486 16.5518 21.834H18.4203C18.4203 22.1874 18.5518 22.4762 18.8147 22.7003C19.0819 22.9245 19.4095 23.0366 19.7974 23.0366C20.2414 23.0366 20.5884 22.9202 20.8384 22.6874C21.0927 22.4504 21.2198 22.1379 21.2198 21.7499C21.2198 20.8103 20.7026 20.3405 19.6681 20.3405H18.6789V18.8793Z" fill="#FFD5AE"/>
<path fill-rule="evenodd" clip-rule="evenodd" d="M17.6283 18.5408H16.668C16.0587 18.5408 15.5646 18.0468 15.5646 17.4374C15.5646 16.7366 15.7561 16.0791 16.149 15.4993L16.1505 15.4971C16.5412 14.9238 17.0743 14.4942 17.7104 14.1992L17.7138 14.1976C18.3493 13.9057 19.0341 13.7671 19.7521 13.7671C20.9175 13.7671 21.9806 14.048 22.8041 14.7447C23.6524 15.458 24.043 16.4414 24.043 17.5537C24.043 18.227 23.8323 18.8489 23.4381 19.3918C23.4125 19.4269 23.3865 19.4615 23.36 19.4955C23.4467 19.5925 23.528 19.6958 23.6032 19.8057C24.0076 20.3908 24.1918 21.0634 24.1918 21.7758C24.1918 22.9203 23.7543 23.9103 22.8734 24.6368C22.0191 25.3451 20.9416 25.6464 19.7521 25.6464C18.6113 25.6464 17.5765 25.3413 16.7405 24.6496L16.7375 24.6471C15.8764 23.9296 15.4482 22.9565 15.4482 21.8339C15.4482 21.2245 15.9423 20.7305 16.5517 20.7305H17.6463C17.6005 20.6092 17.5754 20.4777 17.5754 20.3404V18.8792C17.5754 18.7611 17.594 18.6474 17.6283 18.5408ZM19.4528 21.4438C19.4986 21.5651 19.5237 21.6966 19.5237 21.8339C19.5237 21.8431 19.524 21.8502 19.5245 21.8553C19.5254 21.8561 19.5264 21.857 19.5275 21.858C19.5734 21.8955 19.6421 21.933 19.7974 21.933C19.9246 21.933 20.0005 21.9162 20.0397 21.903C20.0724 21.8921 20.0831 21.8828 20.0859 21.8802L19.4528 21.4438ZM19.4528 21.4438H19.668C19.9423 21.4438 20.0541 21.4909 20.0846 21.5073C20.0853 21.509 20.086 21.511 20.0869 21.5133C20.0972 21.5415 20.1163 21.6133 20.1163 21.7499C20.1163 21.8224 20.1047 21.8534 20.1024 21.8593C20.1009 21.8629 20.0998 21.8647 20.0987 21.8662C20.0977 21.8678 20.094 21.8727 20.0859 21.8802L19.4528 21.4438ZM22.1702 23.7865C22.7823 23.2822 23.0883 22.6119 23.0883 21.7758C23.0883 21.2585 22.9569 20.8102 22.6939 20.4309C22.6513 20.3685 22.6051 20.3085 22.5552 20.2513C22.3018 19.9605 21.9536 19.7359 21.5107 19.5775C21.9099 19.3961 22.2373 19.1411 22.4931 18.8126C22.5109 18.7899 22.5282 18.7668 22.5452 18.7434C22.8081 18.3813 22.9396 17.9848 22.9396 17.5537C22.9396 16.7175 22.6573 16.0624 22.0926 15.5882C21.528 15.1098 20.7478 14.8705 19.7521 14.8705C19.1788 14.8705 18.653 14.9804 18.1745 15.2003C17.7004 15.4201 17.3297 15.7262 17.0625 16.1184C17.0149 16.1886 16.9717 16.2604 16.9327 16.3339C16.7563 16.667 16.668 17.0348 16.668 17.4374H18.5366C18.5366 17.1227 18.6573 16.8684 18.8987 16.6745C19.14 16.4762 19.4396 16.377 19.7974 16.377C20.1939 16.377 20.5043 16.4826 20.7284 16.6938C20.9569 16.905 21.0711 17.2003 21.0711 17.5796C21.0711 17.9718 20.9569 18.2865 20.7284 18.5236C20.4999 18.7606 20.1486 18.8792 19.6746 18.8792H18.6789V20.3404H19.668C20.7025 20.3404 21.2198 20.8102 21.2198 21.7499C21.2198 22.1378 21.0926 22.4503 20.8383 22.6874C20.5883 22.9201 20.2413 23.0365 19.7974 23.0365C19.4095 23.0365 19.0818 22.9244 18.8146 22.7003C18.5517 22.4762 18.4202 22.1873 18.4202 21.8339H16.5517C16.5517 22.2417 16.6262 22.6095 16.7752 22.9374C16.9239 23.2645 17.1468 23.5519 17.4439 23.7994C18.0431 24.2951 18.8125 24.543 19.7521 24.543C20.7564 24.543 21.5624 24.2908 22.1702 23.7865ZM19.5872 17.7758C19.615 17.6892 19.6325 17.5981 19.6381 17.5038C19.6673 17.4918 19.7155 17.4805 19.7974 17.4805C19.8854 17.4805 19.9371 17.4907 19.9622 17.4978C19.9649 17.5151 19.9676 17.5417 19.9676 17.5796C19.9676 17.6689 19.9547 17.7154 19.9482 17.7333C19.9467 17.7375 19.9452 17.7409 19.9439 17.7437C19.9429 17.744 19.9419 17.7444 19.9408 17.7447C19.9055 17.7567 19.8234 17.7758 19.6746 17.7758H19.5872Z" fill="#C28044"/>
</svg>