<svg xmlns="http://www.w3.org/2000/svg" xmlns:xlink="http://www.w3.org/1999/xlink" width="640" zoomAndPan="magnify" viewBox="0 0 480 719.999996" height="960" preserveAspectRatio="xMidYMid meet" version="1.0"><defs><filter x="0%" y="0%" width="100%" height="100%" id="113082345e"><feColorMatrix values="0 0 0 0 1 0 0 0 0 1 0 0 0 0 1 0 0 0 1 0" color-interpolation-filters="sRGB"/></filter><g/><clipPath id="f597ba2e4d"><path d="M 0 6.609375 L 76 6.609375 L 76 626 L 0 626 Z M 0 6.609375 " clip-rule="nonzero"/></clipPath><mask id="f8d1dcc1f9"><g filter="url(#113082345e)"><rect x="-48" width="576" fill="#000000" y="-72" height="863.999995" fill-opacity="0.6275"/></g></mask><clipPath id="8a6a32a782"><rect x="0" width="370" y="0" height="174"/></clipPath><mask id="772293ba52"><g filter="url(#113082345e)"><rect x="-48" width="576" fill="#000000" y="-72" height="863.999995" fill-opacity="0.9882"/></g></mask><clipPath id="87f027b692"><rect x="0" width="362" y="0" height="285"/></clipPath><mask id="ebec84b4fb"><g filter="url(#113082345e)"><rect x="-48" width="576" fill="#000000" y="-72" height="863.999995" fill-opacity="0.7686"/></g></mask><clipPath id="37f47ee26f"><rect x="0" width="370" y="0" height="246"/></clipPath><clipPath id="ec9d1e3b0e"><path d="M 419.4375 1 L 480 1 L 480 627.75 L 419.4375 627.75 Z M 419.4375 1 " clip-rule="nonzero"/></clipPath></defs><rect x="-48" width="576" fill="#ffffff" y="-72" height="863.999995" fill-opacity="1"/><rect x="-48" width="576" fill="#ffffff" y="-72" height="863.999995" fill-opacity="1"/><rect x="-48" width="576" fill="#bc110c" y="-72" height="863.999995" fill-opacity="1"/><g clip-path="url(#f597ba2e4d)"><path fill="#e8c67b" d="M 56.980469 542.820312 C 56.40625 546.410156 50.078125 545.546875 50.652344 541.957031 C 51.230469 538.367188 57.554688 539.230469 56.980469 542.820312 Z M 28.367188 440.574219 C 27.789062 444.453125 34.691406 445.457031 35.269531 441.578125 C 35.84375 437.703125 28.941406 436.695312 28.367188 440.574219 Z M 29.371094 505.769531 L 29.230469 506.199219 C 28.796875 508.355469 32.679688 508.929688 32.96875 506.773438 L 32.96875 506.34375 C 32.824219 505.339844 31.960938 504.476562 30.953125 504.621094 C 30.234375 504.621094 29.660156 505.050781 29.371094 505.769531 Z M 63.453125 291.226562 C 63.019531 291.371094 62.730469 291.800781 62.730469 292.375 L 62.875 292.808594 C 63.019531 293.382812 63.59375 293.667969 64.171875 293.527344 C 64.457031 293.527344 64.601562 293.238281 64.746094 293.09375 L 65.03125 292.664062 C 65.175781 292.234375 65.03125 291.660156 64.746094 291.371094 L 64.601562 291.226562 C 64.457031 291.085938 64.171875 291.085938 63.882812 291.085938 C 63.59375 291.085938 63.59375 291.085938 63.453125 291.226562 Z M 61.4375 332.585938 C 61.152344 334.164062 64.027344 334.59375 64.3125 333.015625 C 64.601562 331.4375 61.726562 330.863281 61.4375 332.585938 Z M 49.648438 310.183594 C 49.214844 313.054688 54.25 313.773438 54.679688 310.902344 C 55.113281 308.027344 50.078125 307.3125 49.648438 310.183594 Z M 39.292969 379.398438 C 38.863281 382.414062 44.039062 383.132812 44.472656 380.117188 C 44.902344 377.101562 39.726562 376.527344 39.292969 379.398438 Z M 63.738281 443.015625 C 63.453125 445.3125 67.332031 445.886719 67.765625 443.589844 C 68.195312 441.292969 64.027344 440.859375 63.738281 443.015625 Z M 53.53125 421.90625 C 53.097656 424.347656 57.554688 425.066406 57.84375 422.480469 C 58.132812 419.894531 53.960938 419.464844 53.53125 421.90625 Z M 52.378906 473.171875 C 52.378906 473.171875 52.523438 473.316406 52.523438 473.316406 C 52.8125 473.601562 53.386719 473.601562 53.816406 473.460938 L 54.105469 473.316406 C 54.824219 473.027344 55.253906 472.023438 54.824219 471.304688 C 54.535156 470.585938 53.53125 470.15625 52.8125 470.585938 C 52.089844 470.875 51.660156 471.878906 52.089844 472.597656 C 52.089844 472.882812 52.234375 473.027344 52.378906 473.171875 Z M 67.765625 488.539062 C 67.332031 491.265625 72.078125 491.984375 72.511719 489.253906 C 72.941406 486.527344 68.195312 485.808594 67.765625 488.539062 Z M 31.816406 486.527344 C 31.097656 487.101562 30.953125 488.25 31.671875 488.96875 C 32.25 489.6875 33.398438 489.828125 34.117188 489.113281 C 34.691406 488.539062 34.835938 487.53125 34.40625 486.8125 L 34.261719 486.527344 C 33.6875 485.953125 32.824219 485.808594 31.960938 486.238281 Z M 68.050781 608.300781 C 67.765625 610.597656 71.648438 611.171875 72.078125 608.875 C 72.511719 606.578125 68.339844 606.003906 68.050781 608.300781 Z M 42.601562 358.433594 C 42.3125 360.011719 45.191406 360.445312 45.332031 358.863281 C 45.476562 357.285156 42.890625 356.855469 42.601562 358.433594 Z M 70.496094 202.914062 C 70.066406 205.929688 75.242188 206.644531 75.671875 203.628906 C 76.105469 200.613281 70.929688 200.039062 70.496094 202.914062 Z M -46.550781 295.535156 C -47.554688 295.535156 -48.273438 296.398438 -48.273438 297.402344 C -48.273438 298.121094 -47.84375 298.695312 -47.125 298.980469 L -46.695312 299.125 C -45.6875 299.558594 -44.535156 299.269531 -44.105469 298.265625 C -43.675781 297.257812 -43.960938 296.109375 -44.96875 295.679688 C -45.398438 295.535156 -45.832031 295.390625 -46.261719 295.535156 C -46.261719 295.535156 -46.40625 295.535156 -46.550781 295.535156 Z M -32.457031 248.722656 C -33.175781 249.152344 -33.464844 250.15625 -33.035156 251.019531 C -33.035156 251.164062 -32.890625 251.164062 -32.890625 251.164062 L -32.601562 251.449219 C -31.308594 252.742188 -28.71875 252.457031 -28.574219 250.589844 C -28.433594 248.722656 -30.589844 247.714844 -32.171875 248.578125 Z M -32.746094 376.527344 C -33.464844 376.957031 -33.753906 377.964844 -33.320312 378.824219 C -33.320312 378.96875 -33.175781 378.96875 -33.175781 378.96875 L -32.890625 379.257812 C -31.59375 380.546875 -29.007812 380.261719 -28.863281 378.394531 C -28.71875 376.527344 -30.875 375.523438 -32.457031 376.382812 Z M -71.28125 290.078125 C -71.714844 292.664062 -67.113281 293.382812 -66.679688 290.796875 C -66.25 288.210938 -70.851562 287.492188 -71.28125 290.078125 Z M -31.882812 207.078125 C -32.3125 209.949219 -27.28125 210.667969 -26.851562 207.792969 C -26.417969 204.921875 -31.59375 204.203125 -31.882812 207.078125 Z M -47.414062 163.277344 C -51.871094 166.007812 -44.105469 170.890625 -42.667969 166.726562 C -42.378906 166.007812 -42.378906 165.289062 -42.378906 164.570312 C -42.667969 162.992188 -44.25 161.984375 -45.832031 162.417969 C -46.550781 162.417969 -47.125 162.847656 -47.414062 163.277344 Z M -27.855469 337.324219 C -32.3125 340.050781 -24.550781 344.933594 -23.113281 340.769531 C -22.824219 340.050781 -22.824219 339.335938 -22.824219 338.617188 C -23.113281 337.035156 -24.691406 336.03125 -26.273438 336.460938 C -26.992188 336.605469 -27.425781 336.894531 -27.855469 337.324219 Z M -69.125 236.515625 C -69.414062 238.8125 -65.53125 239.386719 -65.097656 237.089844 C -64.667969 234.792969 -68.695312 234.359375 -69.125 236.515625 Z M -33.464844 168.878906 C -33.753906 169.164062 -33.609375 169.597656 -33.320312 169.882812 C -32.601562 170.601562 -31.453125 170.601562 -30.589844 169.882812 C -29.871094 169.308594 -29.726562 168.449219 -30.15625 167.730469 C -30.445312 167.441406 -30.734375 167.15625 -31.164062 167.011719 C -32.457031 166.726562 -33.753906 167.730469 -33.464844 168.878906 Z M -84.796875 273.707031 C -85.085938 276.148438 -80.917969 276.722656 -80.628906 274.28125 C -80.339844 271.839844 -84.367188 271.410156 -84.796875 273.707031 Z M -55.464844 262.078125 C -55.609375 262.078125 -55.609375 262.21875 -55.753906 262.21875 C -56.613281 262.792969 -56.902344 263.945312 -56.328125 264.804688 C -56.328125 264.804688 -56.183594 264.949219 -56.183594 264.949219 L -56.039062 265.234375 C -55.320312 266.382812 -53.738281 266.816406 -52.589844 266.097656 C -51.4375 265.378906 -51.007812 263.800781 -51.726562 262.652344 C -52.445312 261.503906 -54.027344 261.070312 -55.175781 261.789062 C -55.175781 261.933594 -55.320312 261.933594 -55.464844 262.078125 Z M -60.640625 191.28125 C -61.074219 193.867188 -56.613281 194.441406 -56.183594 192 C -55.753906 189.558594 -60.210938 188.695312 -60.640625 191.28125 Z M -87.960938 300.273438 C -87.816406 298.980469 -90.117188 298.550781 -90.261719 299.988281 C -90.40625 301.421875 -88.105469 301.421875 -87.960938 300.273438 Z M -73.152344 192.140625 C -72.863281 189.988281 -76.746094 189.414062 -77.035156 191.566406 C -77.320312 193.722656 -73.4375 194.296875 -73.152344 192.140625 Z M -12.757812 619.503906 C -13.046875 621.945312 -8.875 622.519531 -8.445312 620.078125 C -8.011719 617.636719 -12.472656 617.0625 -12.757812 619.503906 Z M -160.144531 341.058594 C -160 340.914062 -160 340.769531 -160 340.484375 L -159.859375 340.195312 C -158.707031 337.035156 -164.460938 336.460938 -164.027344 339.621094 L -164.027344 340.050781 C -163.742188 341.058594 -162.734375 341.777344 -161.582031 341.777344 C -161.152344 341.777344 -160.578125 341.488281 -160.144531 341.058594 Z M -139.726562 344.503906 L -139.726562 344.933594 C -140.015625 347.519531 -135.84375 348.09375 -135.269531 345.652344 L -135.125 345.222656 C -134.695312 342.636719 -139.582031 341.917969 -139.726562 344.503906 Z M -72.433594 336.460938 C -72.71875 336.894531 -73.007812 337.324219 -73.296875 337.898438 C -74.445312 341.203125 -68.550781 342.0625 -68.695312 338.617188 C -68.695312 338.042969 -68.835938 337.46875 -68.980469 337.035156 C -69.554688 336.03125 -70.851562 335.601562 -71.855469 336.175781 C -72 336.175781 -72.289062 336.320312 -72.433594 336.460938 Z M -67.6875 409.414062 C -68.117188 410.128906 -68.550781 410.847656 -68.695312 411.710938 C -68.835938 412.429688 -68.40625 413.289062 -67.832031 413.71875 L -67.253906 414.007812 C -66.535156 414.292969 -65.675781 414.292969 -64.957031 413.863281 C -64.378906 413.578125 -63.949219 413.144531 -63.515625 412.570312 C -61.214844 410.128906 -65.960938 406.972656 -67.6875 409.414062 Z M -83.792969 371.070312 L -83.792969 371.5 C -83.503906 372.507812 -82.496094 373.226562 -81.347656 372.9375 C -80.917969 372.792969 -80.484375 372.507812 -80.195312 372.074219 L -80.054688 371.644531 C -78.902344 368.917969 -83.9375 368.199219 -83.792969 371.070312 Z M -145.765625 383.996094 C -146.199219 386.722656 -141.453125 387.441406 -141.019531 384.710938 C -140.589844 381.984375 -145.335938 381.265625 -145.765625 383.996094 Z M -172.511719 418.601562 C -172.800781 420.613281 -169.203125 421.1875 -168.917969 419.175781 C -168.628906 417.167969 -172.082031 416.59375 -172.511719 418.601562 Z M -123.765625 392.898438 C -123.910156 393.183594 -124.054688 393.472656 -124.199219 393.617188 C -126.210938 397.207031 -118.160156 398.355469 -119.164062 394.335938 C -119.308594 394.046875 -119.308594 393.761719 -119.308594 393.472656 C -119.597656 392.179688 -121.035156 391.320312 -122.328125 391.75 C -122.902344 391.894531 -123.335938 392.324219 -123.765625 392.898438 Z M -193.9375 454.214844 C -193.074219 454.503906 -192.066406 454.789062 -191.0625 454.648438 C -189.765625 454.648438 -188.761719 453.5 -188.761719 452.347656 C -188.761719 452.0625 -188.761719 451.773438 -188.902344 451.488281 C -189.191406 450.914062 -189.480469 450.339844 -190.054688 449.910156 C -194.082031 446.175781 -198.539062 452.492188 -193.9375 454.214844 Z M -57.910156 444.164062 C -58.054688 444.164062 -58.195312 444.164062 -58.339844 444.164062 C -59.492188 444.164062 -60.355469 445.167969 -60.210938 446.175781 C -60.210938 447.035156 -59.636719 447.753906 -58.914062 447.898438 L -58.484375 448.042969 C -54.890625 449.046875 -54.171875 444.308594 -57.910156 444.164062 Z M -28.433594 403.523438 C -28.574219 404.097656 -28.433594 404.671875 -28 404.960938 C -26.707031 405.824219 -25.125 406.109375 -23.6875 405.824219 C -22.394531 405.679688 -21.386719 404.671875 -21.53125 403.238281 C -21.671875 401.945312 -22.679688 400.941406 -24.117188 401.082031 C -24.261719 401.082031 -24.40625 401.082031 -24.550781 401.082031 C -25.988281 401.65625 -27.714844 402.089844 -28.433594 403.523438 Z M -38.496094 465.128906 C -38.785156 467.570312 -34.472656 468.289062 -34.183594 465.703125 C -33.753906 463.261719 -38.066406 462.6875 -38.496094 465.128906 Z M 1.1875 480.207031 C 1.332031 480.207031 1.476562 480.207031 1.765625 480.207031 C 4.640625 480.351562 5.070312 477.050781 2.339844 476.332031 C 2.195312 476.332031 2.050781 476.1875 1.910156 476.1875 C 0.757812 476.042969 -0.25 476.761719 -0.390625 477.910156 C -0.679688 478.914062 0.0390625 480.066406 1.1875 480.207031 Z M -166.328125 435.691406 C -166.761719 438.277344 -162.300781 438.851562 -161.871094 436.265625 C -161.441406 433.679688 -165.898438 433.105469 -166.328125 435.691406 Z M -197.53125 548.132812 L -197.675781 548.5625 C -199.113281 553.160156 -191.203125 554.308594 -191.347656 549.566406 L -191.347656 549.136719 C -191.347656 546.265625 -196.667969 545.546875 -197.53125 548.132812 Z M -211.335938 595.519531 L -211.335938 595.089844 C -211.335938 592.21875 -216.800781 591.5 -217.519531 594.226562 L -217.664062 594.660156 C -219.246094 599.109375 -211.335938 600.257812 -211.335938 595.519531 Z M -104.066406 427.074219 C -104.5 430.234375 -99.035156 430.953125 -98.601562 427.9375 C -98.171875 424.921875 -103.492188 423.917969 -104.066406 427.074219 Z M -169.492188 387.585938 C -169.921875 390.3125 -165.179688 391.03125 -164.746094 388.304688 C -164.316406 385.574219 -169.0625 385 -169.492188 387.585938 Z M -172.511719 471.59375 C -172.367188 471.734375 -172.367188 471.734375 -172.222656 471.878906 C -171.363281 472.882812 -169.78125 473.027344 -168.628906 472.453125 L -168.34375 472.308594 C -166.042969 471.160156 -167.480469 467.859375 -169.78125 467.570312 C -172.082031 467.285156 -174.382812 469.726562 -172.511719 471.59375 Z M -158.132812 490.546875 C -158.707031 493.992188 -152.523438 495 -152.09375 491.410156 C -151.660156 487.820312 -157.703125 487.101562 -158.132812 490.546875 Z M -138.863281 458.8125 C -139.726562 459.53125 -139.871094 460.964844 -139.152344 461.828125 C -138.433594 462.6875 -136.996094 462.832031 -136.132812 462.113281 C -135.269531 461.394531 -135.125 460.246094 -135.699219 459.386719 C -135.988281 458.378906 -137.140625 457.949219 -138 458.238281 C -138.289062 458.378906 -138.578125 458.523438 -138.863281 458.8125 Z M -108.667969 482.648438 C -109.242188 486.238281 -102.917969 487.246094 -102.339844 483.511719 C -101.765625 479.777344 -108.09375 479.058594 -108.667969 482.648438 Z M -199.542969 507.921875 C -200.121094 511.511719 -193.792969 512.519531 -193.21875 508.929688 C -192.644531 505.339844 -198.96875 504.332031 -199.542969 507.921875 Z M -112.261719 453.640625 C -113.125 453.640625 -113.84375 454.503906 -113.699219 455.363281 C -113.699219 455.941406 -113.269531 456.515625 -112.695312 456.800781 L -112.261719 457.089844 C -109.242188 458.667969 -108.378906 453.066406 -111.832031 453.640625 C -111.832031 453.640625 -112.117188 453.640625 -112.261719 453.640625 Z M -9.882812 444.59375 C -6 445.601562 -5.28125 440.429688 -9.308594 440.429688 C -9.453125 440.429688 -9.59375 440.429688 -9.738281 440.429688 C -10.890625 440.429688 -11.753906 441.4375 -11.753906 442.585938 C -11.753906 443.445312 -11.175781 444.308594 -10.3125 444.59375 Z M -34.613281 527.597656 L -34.613281 528.027344 C -34.472656 529.320312 -33.464844 530.183594 -32.171875 530.039062 C -31.308594 529.894531 -30.589844 529.464844 -30.300781 528.601562 L -30.15625 528.171875 C -29.582031 525.730469 -34.328125 525.011719 -34.613281 527.597656 Z M -45.832031 505.480469 C -42.378906 504.621094 -45.253906 499.308594 -48.417969 501.460938 C -51.007812 503.042969 -48.5625 506.199219 -45.832031 505.480469 Z M -11.175781 527.597656 C -11.609375 527.882812 -11.609375 528.457031 -11.320312 528.890625 C -11.175781 529.609375 -10.601562 530.324219 -9.882812 530.613281 L -9.308594 530.757812 C -5.136719 532.046875 -4.417969 526.160156 -8.589844 526.304688 C -8.730469 526.304688 -9.019531 526.304688 -9.164062 526.304688 C -10.171875 526.449219 -10.890625 527.023438 -11.175781 527.597656 Z M 6.367188 609.738281 C 5.933594 612.753906 11.109375 613.472656 11.542969 610.457031 C 11.972656 607.441406 6.796875 606.867188 6.367188 609.738281 Z M 17.871094 542.675781 C 17.726562 542.675781 17.582031 542.53125 17.4375 542.53125 C 15.710938 541.527344 13.699219 542.246094 12.691406 543.824219 C 11.6875 545.546875 12.40625 547.558594 13.988281 548.5625 C 14.707031 548.992188 15.570312 549.136719 16.429688 548.992188 L 16.863281 548.992188 C 18.589844 549.28125 20.167969 548.132812 20.457031 546.410156 C 20.746094 544.542969 19.59375 542.960938 17.871094 542.675781 Z M 43.320312 573.980469 C 43.175781 575.992188 44.757812 577.714844 46.914062 577.859375 C 47.203125 577.859375 47.347656 577.859375 47.632812 577.859375 L 48.066406 577.859375 C 49.792969 577.714844 51.085938 576.277344 51.085938 574.554688 C 51.085938 573.261719 50.222656 572.113281 48.929688 571.683594 L 48.496094 571.539062 C 46.628906 570.675781 44.472656 571.539062 43.609375 573.40625 C 43.320312 573.550781 43.320312 573.835938 43.320312 573.980469 Z M 1.621094 573.40625 C 1.476562 573.40625 1.332031 573.40625 1.1875 573.40625 C -0.105469 573.40625 -1.113281 574.554688 -1.113281 575.847656 C -1.113281 576.851562 -0.390625 577.714844 0.46875 578 L 0.902344 578.144531 C 5.214844 579.4375 6.078125 573.550781 1.621094 573.40625 Z M -30.589844 560.050781 L -30.15625 560.050781 C -28.433594 560.480469 -26.707031 559.476562 -26.132812 557.609375 C -25.554688 555.742188 -26.707031 554.164062 -28.574219 553.589844 C -28.71875 553.589844 -29.007812 553.445312 -29.152344 553.445312 L -29.582031 553.445312 C -31.308594 553.015625 -33.035156 554.164062 -33.464844 555.886719 C -33.894531 557.609375 -32.746094 559.332031 -31.019531 559.765625 C -30.875 560.050781 -30.734375 560.050781 -30.589844 560.050781 Z M -59.058594 577.570312 C -61.074219 578.863281 -60.355469 581.160156 -58.339844 582.164062 L -57.765625 582.453125 C -56.039062 583.457031 -53.453125 581.734375 -53.882812 580.011719 L -54.027344 579.4375 C -54.457031 577.714844 -56.328125 576.710938 -58.054688 577.140625 C -58.484375 577.285156 -58.773438 577.425781 -59.058594 577.570312 Z M -54.601562 616.054688 L -54.601562 616.488281 C -54.457031 618.066406 -53.019531 619.359375 -51.4375 619.214844 C -50.289062 619.070312 -49.28125 618.355469 -48.851562 617.347656 L -48.707031 616.917969 C -47.699219 613.613281 -54.457031 612.609375 -54.601562 616.054688 Z M -129.660156 230.195312 C -130.09375 233.070312 -125.058594 233.785156 -124.628906 230.914062 C -124.199219 228.042969 -129.230469 227.324219 -129.660156 230.195312 Z M -100.328125 272.992188 C -99.753906 268.824219 -107.085938 267.675781 -107.804688 271.839844 C -108.523438 276.007812 -101.046875 277.296875 -100.328125 272.992188 Z M -99.035156 185.25 C -99.320312 187.546875 -95.4375 188.121094 -95.007812 185.824219 C -94.578125 183.527344 -98.746094 182.953125 -99.035156 185.25 Z M -144.183594 309.609375 C -144.328125 309.609375 -144.472656 309.464844 -144.617188 309.464844 C -145.910156 308.746094 -147.492188 309.320312 -148.210938 310.613281 C -148.929688 311.90625 -148.355469 313.484375 -147.0625 314.203125 C -146.484375 314.492188 -145.910156 314.636719 -145.335938 314.492188 L -144.902344 314.492188 C -143.609375 314.492188 -142.460938 313.34375 -142.460938 312.050781 C -142.460938 310.902344 -143.179688 309.894531 -144.183594 309.609375 Z M -155.402344 263.226562 C -155.542969 263.226562 -155.6875 263.226562 -155.6875 263.082031 C -156.40625 262.9375 -157.269531 263.511719 -157.414062 264.230469 C -157.414062 264.660156 -157.414062 264.949219 -157.125 265.234375 L -156.980469 265.523438 C -156.839844 265.667969 -156.550781 265.953125 -156.261719 265.953125 C -155.832031 266.382812 -155.113281 266.382812 -154.679688 265.953125 L -154.539062 265.808594 C -153.242188 265.234375 -154.105469 263.65625 -155.402344 263.226562 Z M -163.023438 213.394531 C -163.308594 215.550781 -159.425781 216.265625 -159.140625 213.96875 C -158.851562 211.671875 -162.589844 211.097656 -163.023438 213.394531 Z M -160.722656 186.828125 C -161.152344 189.84375 -155.976562 190.5625 -155.542969 187.546875 C -155.113281 184.53125 -160.289062 183.8125 -160.722656 186.828125 Z M -119.019531 154.804688 C -117.296875 154.804688 -115.859375 153.371094 -116 151.644531 C -116 150.355469 -116.863281 149.207031 -118.160156 148.773438 L -118.589844 148.628906 C -120.171875 147.625 -122.328125 148.199219 -123.335938 149.921875 C -124.339844 151.503906 -123.765625 153.65625 -122.039062 154.660156 C -121.320312 155.09375 -120.316406 155.238281 -119.453125 155.09375 C -119.453125 154.804688 -119.308594 154.804688 -119.019531 154.804688 Z M -162.160156 284.910156 C -162.734375 285.484375 -162.878906 286.34375 -162.445312 287.0625 L -162.300781 287.207031 C -161.007812 289.503906 -157.125 289.359375 -156.695312 286.632812 C -156.261719 283.902344 -160 282.753906 -161.871094 284.621094 Z M -95.582031 569.816406 C -96.589844 570.535156 -96.878906 571.96875 -96.300781 572.976562 C -96.300781 573.117188 -96.15625 573.117188 -96.15625 573.261719 L -96.015625 573.550781 C -94.433594 575.558594 -90.835938 574.699219 -90.550781 572.402344 C -90.261719 570.101562 -93.425781 568.238281 -95.4375 569.671875 C -95.4375 569.671875 -95.4375 569.671875 -95.582031 569.816406 Z M -119.597656 532.046875 C -120.027344 535.207031 -114.5625 535.925781 -114.132812 532.910156 C -113.699219 529.75 -119.164062 529.03125 -119.597656 532.046875 Z M -145.621094 581.304688 L -145.335938 581.160156 C -142.316406 579.582031 -145.910156 575.128906 -148.785156 577.140625 C -149.648438 577.714844 -150.222656 578.433594 -150.65625 579.292969 C -152.09375 582.164062 -147.203125 583.890625 -145.621094 581.304688 Z M -198.824219 611.890625 L -198.824219 612.324219 C -198.824219 613.757812 -197.675781 614.90625 -196.238281 614.90625 C -195.085938 614.90625 -194.082031 614.1875 -193.792969 613.039062 L -193.648438 612.609375 C -192.785156 609.738281 -198.824219 608.875 -198.824219 611.890625 Z M -173.804688 528.746094 C -172.65625 528.171875 -173.230469 526.449219 -174.523438 526.304688 C -175.820312 526.160156 -176.824219 527.453125 -175.960938 528.316406 L -175.53125 528.746094 C -175.242188 529.03125 -174.8125 529.175781 -174.523438 528.890625 Z M -143.035156 544.972656 C -141.882812 543.824219 -142.890625 541.957031 -144.472656 541.8125 C -146.054688 541.671875 -147.636719 543.105469 -146.773438 544.398438 C -146.484375 544.972656 -146.199219 545.402344 -145.765625 545.976562 C -145.335938 546.410156 -144.761719 546.550781 -144.328125 546.265625 C -143.898438 545.835938 -143.464844 545.402344 -143.035156 544.972656 Z M -116.578125 594.085938 C -116 594.804688 -115.714844 595.664062 -115.140625 596.238281 C -114.707031 596.667969 -114.132812 596.8125 -113.558594 596.667969 C -110.824219 596.09375 -111.6875 593.078125 -112.695312 591.5 C -114.417969 589.203125 -118.734375 591.929688 -116.578125 594.085938 Z M -135.125 616.773438 C -134.695312 614.1875 -139.296875 613.472656 -139.726562 616.054688 C -140.160156 618.640625 -135.414062 619.359375 -135.125 616.773438 Z M -177.542969 597.101562 C -177.832031 598.96875 -174.523438 599.542969 -174.238281 597.53125 C -173.949219 595.519531 -177.257812 595.234375 -177.542969 597.101562 Z M -86.957031 516.253906 C -87.097656 516.828125 -87.097656 517.542969 -86.957031 518.121094 C -86.957031 518.261719 -86.667969 518.40625 -86.378906 518.40625 C -86.238281 518.40625 -86.238281 518.261719 -86.238281 518.261719 C -85.949219 517.6875 -85.804688 517.113281 -85.660156 516.539062 C -85.375 515.679688 -86.8125 515.535156 -86.957031 516.253906 Z M -97.453125 622.375 C -97.882812 625.390625 -92.707031 626.109375 -92.277344 623.09375 C -91.84375 620.078125 -97.019531 619.359375 -97.453125 622.375 Z M -137.859375 500.742188 C -138.144531 502.464844 -135.125 502.898438 -134.839844 501.175781 C -134.550781 499.449219 -137.570312 499.019531 -137.859375 500.742188 Z M 47.777344 186.253906 L 47.777344 186.683594 C 48.066406 187.691406 49.214844 188.410156 50.222656 188.121094 C 50.652344 187.976562 51.085938 187.691406 51.371094 187.257812 L 51.515625 186.828125 C 52.523438 184.101562 47.492188 183.382812 47.777344 186.253906 Z M 47.632812 231.058594 C 47.492188 231.34375 47.347656 231.632812 47.203125 231.777344 C 45.191406 235.367188 53.242188 236.515625 52.234375 232.496094 C 52.089844 232.207031 52.089844 231.921875 52.089844 231.632812 C 51.804688 230.339844 50.367188 229.480469 49.070312 229.910156 C 48.496094 230.195312 47.921875 230.628906 47.632812 231.058594 Z M 67.621094 260.640625 L 67.476562 261.070312 C 66.039062 265.667969 73.949219 266.816406 73.804688 262.078125 L 73.804688 261.644531 C 73.804688 258.773438 68.484375 257.910156 67.621094 260.640625 Z M 22.902344 297.832031 C 22.328125 301.421875 28.652344 302.285156 29.230469 298.695312 C 29.804688 295.105469 23.332031 294.242188 22.902344 297.832031 Z M 19.308594 268.824219 C 18.445312 268.824219 17.726562 269.6875 17.871094 270.550781 C 17.871094 271.125 18.300781 271.699219 18.875 271.984375 C 19.019531 272.128906 19.164062 272.128906 19.308594 272.273438 C 22.328125 273.851562 23.191406 268.25 19.882812 268.824219 C 19.59375 268.683594 19.449219 268.683594 19.308594 268.824219 Z M 11.972656 347.234375 C 11.542969 350.390625 17.007812 351.109375 17.4375 348.09375 C 17.871094 345.078125 12.40625 344.074219 11.972656 347.234375 Z M -6.433594 315.925781 C -6.71875 317.652344 -3.699219 318.082031 -3.410156 316.359375 C -3.125 314.636719 -6.144531 314.203125 -6.433594 315.925781 Z M 16.144531 47.679688 C 15.425781 48.109375 15.136719 49.113281 15.570312 49.976562 C 15.570312 50.121094 15.710938 50.121094 15.710938 50.121094 L 16 50.40625 C 17.292969 51.699219 19.882812 51.414062 20.027344 49.546875 C 20.167969 47.679688 18.011719 46.671875 16.429688 47.535156 Z M 20.890625 8.332031 C 16.429688 11.058594 24.195312 15.941406 25.632812 11.777344 C 25.921875 11.058594 25.921875 10.34375 25.921875 9.625 C 25.632812 8.042969 24.050781 7.039062 22.46875 7.46875 C 21.75 7.613281 21.320312 7.902344 20.890625 8.332031 Z M -111.398438 12.207031 C -111.257812 12.066406 -111.257812 11.921875 -111.257812 11.632812 L -111.113281 11.347656 C -109.960938 8.1875 -115.714844 7.613281 -115.28125 10.773438 L -115.28125 11.203125 C -114.996094 12.207031 -113.988281 12.925781 -112.980469 12.78125 C -112.40625 12.78125 -111.832031 12.496094 -111.398438 12.207031 Z M -90.980469 15.65625 L -90.980469 16.085938 C -91.269531 18.671875 -87.097656 19.246094 -86.523438 16.804688 L -86.378906 16.375 C -85.949219 13.644531 -90.835938 12.925781 -90.980469 15.65625 Z M -23.6875 7.46875 C -23.972656 7.902344 -24.261719 8.332031 -24.550781 8.90625 C -25.699219 12.207031 -19.804688 13.070312 -19.949219 9.625 C -19.949219 9.050781 -20.09375 8.476562 -20.378906 8.042969 C -20.953125 7.039062 -22.25 6.609375 -23.253906 7.183594 C -23.253906 7.183594 -23.542969 7.328125 -23.6875 7.46875 Z M -18.941406 80.5625 C -19.371094 81.28125 -19.804688 82 -19.949219 82.859375 C -20.09375 83.578125 -19.660156 84.441406 -19.085938 84.871094 C -18.941406 85.015625 -18.796875 85.015625 -18.511719 85.160156 C -17.792969 85.445312 -16.929688 85.445312 -16.210938 85.015625 C -15.632812 84.726562 -15.058594 84.296875 -14.628906 83.722656 C -12.472656 81.136719 -17.214844 77.976562 -18.941406 80.5625 Z M -35.046875 42.078125 L -35.046875 42.507812 C -34.757812 43.515625 -33.753906 44.230469 -32.601562 43.945312 C -32.171875 43.800781 -31.738281 43.515625 -31.453125 43.082031 L -31.308594 42.652344 C -30.15625 40.066406 -35.191406 39.347656 -35.046875 42.078125 Z M -96.878906 55.003906 C -97.308594 57.730469 -92.5625 58.449219 -92.132812 55.71875 C -91.699219 52.992188 -96.589844 52.273438 -96.878906 55.003906 Z M -123.765625 89.609375 C -124.054688 91.621094 -120.460938 92.195312 -120.171875 90.183594 C -119.882812 88.175781 -123.335938 87.601562 -123.765625 89.609375 Z M -75.019531 63.90625 C -75.164062 64.191406 -75.308594 64.480469 -75.453125 64.625 C -77.464844 68.214844 -69.414062 69.363281 -70.417969 65.339844 C -70.5625 65.054688 -70.5625 64.765625 -70.5625 64.480469 C -70.996094 63.1875 -72.289062 62.324219 -73.726562 62.757812 C -74.15625 63.042969 -74.589844 63.476562 -75.019531 63.90625 Z M -145.191406 125.367188 C -144.328125 125.65625 -143.320312 125.941406 -142.316406 125.796875 C -141.019531 125.796875 -140.015625 124.648438 -140.160156 123.355469 C -140.160156 123.070312 -140.160156 122.78125 -140.300781 122.640625 C -140.589844 122.0625 -140.878906 121.488281 -141.453125 121.058594 C -145.191406 117.183594 -149.792969 123.644531 -145.191406 125.367188 Z M -9.738281 115.171875 C -10.890625 115.171875 -11.753906 116.175781 -11.609375 117.183594 C -11.609375 118.042969 -11.03125 118.761719 -10.3125 118.90625 L -9.882812 119.046875 C -6.144531 120.054688 -5.570312 115.171875 -9.308594 115.027344 C -9.308594 115.171875 -9.453125 115.171875 -9.738281 115.171875 Z M 20.3125 74.53125 C 20.167969 75.105469 20.3125 75.679688 20.746094 75.96875 C 22.039062 76.828125 23.621094 77.117188 25.058594 76.828125 C 26.351562 76.6875 27.214844 75.539062 27.070312 74.246094 C 26.929688 72.953125 25.777344 72.089844 24.484375 72.234375 C 24.484375 72.234375 24.339844 72.234375 24.339844 72.234375 C 22.757812 72.664062 21.03125 73.238281 20.3125 74.53125 Z M 10.390625 136.136719 C 9.960938 138.578125 14.417969 139.296875 14.707031 136.855469 C 14.992188 134.414062 10.679688 133.695312 10.390625 136.136719 Z M 49.933594 151.214844 C 50.078125 151.214844 50.222656 151.214844 50.511719 151.214844 C 53.386719 151.359375 53.816406 148.054688 51.085938 147.339844 L 50.652344 147.195312 C 49.503906 147.050781 48.496094 147.769531 48.351562 148.917969 C 48.066406 150.066406 48.785156 151.070312 49.933594 151.214844 Z M -117.582031 106.699219 C -118.015625 109.285156 -113.558594 109.859375 -113.125 107.417969 C -112.695312 104.976562 -117.152344 104.113281 -117.582031 106.699219 Z M -55.320312 98.082031 C -55.753906 101.242188 -50.289062 101.960938 -49.855469 98.945312 C -49.425781 95.929688 -54.746094 95.066406 -55.320312 98.082031 Z M -120.746094 58.734375 C -121.179688 61.464844 -116.433594 62.183594 -116 59.453125 C -115.570312 56.726562 -120.316406 56.007812 -120.746094 58.734375 Z M -123.765625 142.597656 L -123.480469 142.886719 C -122.617188 143.890625 -121.035156 144.035156 -119.882812 143.460938 L -119.597656 143.316406 C -117.296875 142.167969 -118.734375 139.007812 -121.035156 138.578125 C -123.335938 138.148438 -125.636719 140.875 -123.765625 142.597656 Z M -109.386719 161.699219 C -109.960938 165.144531 -103.777344 166.148438 -103.347656 162.558594 C -102.917969 158.96875 -108.957031 158.109375 -109.386719 161.699219 Z M -90.117188 129.820312 C -90.980469 130.535156 -91.125 131.972656 -90.261719 132.835938 C -89.542969 133.695312 -88.105469 133.839844 -87.242188 132.976562 C -86.523438 132.261719 -86.238281 131.113281 -86.8125 130.25 C -87.097656 129.246094 -88.25 128.8125 -89.113281 129.101562 C -89.542969 129.386719 -89.832031 129.53125 -90.117188 129.820312 Z M -59.921875 153.65625 C -60.496094 157.246094 -54.171875 158.109375 -53.59375 154.519531 C -53.019531 150.929688 -59.347656 150.066406 -59.921875 153.65625 Z M -63.375 124.648438 C -64.234375 124.648438 -64.957031 125.511719 -64.8125 126.371094 C -64.8125 126.945312 -64.378906 127.519531 -63.804688 127.808594 C -63.660156 127.808594 -63.515625 127.953125 -63.375 128.097656 C -60.355469 129.675781 -59.492188 124.074219 -62.796875 124.648438 C -63.085938 124.648438 -63.230469 124.648438 -63.375 124.648438 Z M 38.429688 115.601562 L 38.863281 115.746094 C 42.746094 116.75 43.464844 111.582031 39.4375 111.582031 C 39.292969 111.582031 39.152344 111.582031 39.007812 111.582031 C 37.855469 111.582031 36.992188 112.585938 36.992188 113.734375 C 37.136719 114.453125 37.570312 115.316406 38.429688 115.601562 Z M 27.070312 199.035156 C 30.523438 198.171875 27.648438 192.859375 24.484375 195.015625 C 21.894531 196.59375 24.484375 199.753906 27.070312 199.035156 Z M -89.113281 171.75 C -89.398438 173.472656 -86.378906 173.90625 -86.09375 172.179688 C -85.804688 170.457031 -88.824219 170.171875 -89.113281 171.75 Z M 60.574219 18.382812 C 60.144531 21.542969 65.609375 22.261719 66.039062 19.246094 C 66.472656 16.230469 61.152344 15.222656 60.574219 18.382812 Z M 60.574219 18.382812 " fill-opacity="1" fill-rule="nonzero"/></g><g mask="url(#f8d1dcc1f9)"><g transform="matrix(1, 0, 0, 1, 57, -0.000000000000023324)"><g clip-path="url(#8a6a32a782)"><g fill="#ce1710" fill-opacity="1"><g transform="translate(0.690409, 155.577303)"><g><path d="M 49.5625 -117.792969 L 48.863281 -73.121094 C 47.816406 -72.945312 46.59375 -72.945312 45.546875 -72.769531 C 42.230469 -72.421875 39.089844 -71.898438 35.949219 -71.550781 C 32.109375 -70.851562 28.097656 -70.328125 24.257812 -69.628906 C 23.90625 -86.730469 23.734375 -104.007812 23.734375 -121.109375 L 6.980469 -120.933594 C 6.980469 -80.625 8.027344 -40.136719 9.773438 0.347656 L 26.527344 -0.347656 C 25.652344 -17.800781 25.128906 -35.25 24.605469 -52.703125 C 29.316406 -53.574219 33.855469 -54.273438 38.390625 -54.96875 C 41.535156 -55.320312 44.5 -55.667969 47.464844 -56.019531 C 47.816406 -56.191406 48.164062 -56.191406 48.6875 -56.191406 L 47.992188 -13.960938 L 64.742188 -13.613281 L 66.3125 -117.621094 Z M 49.5625 -117.792969 "/></g></g></g><g fill="#ce1710" fill-opacity="1"><g transform="translate(74.505587, 155.577303)"><g><path d="M 80.273438 2.441406 L 56.890625 -125.820312 L 40.660156 -126.867188 L 4.363281 -9.945312 L 20.242188 -4.886719 L 29.316406 -34.203125 C 34.03125 -34.03125 38.742188 -34.03125 43.277344 -34.03125 C 47.816406 -34.203125 52.351562 -34.203125 56.542969 -34.03125 L 63.695312 5.410156 Z M 42.929688 -50.78125 C 40.136719 -50.78125 37.34375 -50.78125 34.554688 -50.78125 L 46.417969 -89.347656 L 53.398438 -50.957031 C 49.910156 -50.957031 46.417969 -50.957031 42.929688 -50.78125 Z M 42.929688 -50.78125 "/></g></g></g><g fill="#ce1710" fill-opacity="1"><g transform="translate(159.48902, 155.577303)"><g><path d="M 57.414062 -90.394531 C 57.238281 -91.617188 56.890625 -93.015625 56.542969 -94.234375 C 56.191406 -95.457031 56.019531 -96.851562 55.496094 -98.074219 C 55.144531 -99.296875 54.621094 -100.691406 54.097656 -101.914062 C 53.398438 -103.136719 52.875 -104.355469 52.179688 -105.578125 C 50.609375 -108.023438 49.039062 -110.289062 47.117188 -112.210938 C 45.199219 -114.128906 43.105469 -116.050781 40.835938 -117.621094 C 38.390625 -119.191406 35.949219 -120.410156 33.332031 -121.457031 C 28.621094 -123.203125 23.382812 -123.902344 18.324219 -123.203125 L 7.851562 -123.554688 C 6.804688 -82.195312 6.632812 -40.835938 7.328125 0.523438 L 24.082031 0.347656 C 23.90625 -12.390625 23.734375 -24.953125 23.734375 -37.519531 C 27.921875 -39.089844 32.109375 -40.835938 36.125 -43.277344 C 40.484375 -45.722656 44.675781 -49.039062 48.164062 -53.050781 C 49.910156 -55.144531 51.65625 -57.414062 52.875 -60.03125 C 53.226562 -60.554688 53.574219 -61.253906 53.921875 -61.949219 L 54.273438 -62.824219 L 54.621094 -63.871094 L 55.320312 -65.789062 L 56.019531 -67.710938 C 57.238281 -72.597656 57.9375 -77.65625 57.9375 -82.71875 C 57.9375 -85.335938 57.761719 -87.777344 57.414062 -90.394531 Z M 39.789062 -72.246094 L 39.4375 -70.851562 L 39.089844 -69.804688 L 38.914062 -69.28125 L 38.566406 -68.929688 C 38.390625 -68.582031 38.21875 -68.234375 38.042969 -67.882812 C 37.34375 -66.488281 36.472656 -65.265625 35.601562 -64.046875 C 32.632812 -60.730469 28.445312 -57.9375 23.734375 -55.667969 C 23.734375 -72.597656 23.90625 -89.699219 24.257812 -106.625 C 25.304688 -106.449219 26.351562 -106.101562 27.398438 -105.753906 C 28.792969 -105.230469 30.191406 -104.53125 31.410156 -103.660156 C 32.632812 -102.785156 33.855469 -101.738281 34.902344 -100.691406 C 35.949219 -99.644531 36.996094 -98.25 37.695312 -97.027344 C 38.042969 -96.328125 38.390625 -95.632812 38.742188 -94.933594 C 39.089844 -94.234375 39.4375 -93.539062 39.613281 -92.839844 C 39.960938 -91.964844 40.136719 -91.269531 40.3125 -90.394531 C 40.484375 -89.523438 40.660156 -88.824219 40.835938 -87.953125 C 41.011719 -86.207031 41.183594 -84.460938 41.183594 -82.71875 C 41.183594 -79.054688 40.660156 -75.5625 39.789062 -72.246094 Z M 39.789062 -72.246094 "/></g></g></g><g fill="#ce1710" fill-opacity="1"><g transform="translate(224.927992, 155.577303)"><g><path d="M 57.414062 -90.394531 C 57.238281 -91.617188 56.890625 -93.015625 56.542969 -94.234375 C 56.191406 -95.457031 56.019531 -96.851562 55.496094 -98.074219 C 55.144531 -99.296875 54.621094 -100.691406 54.097656 -101.914062 C 53.398438 -103.136719 52.875 -104.355469 52.179688 -105.578125 C 50.609375 -108.023438 49.039062 -110.289062 47.117188 -112.210938 C 45.199219 -114.128906 43.105469 -116.050781 40.835938 -117.621094 C 38.390625 -119.191406 35.949219 -120.410156 33.332031 -121.457031 C 28.621094 -123.203125 23.382812 -123.902344 18.324219 -123.203125 L 7.851562 -123.554688 C 6.804688 -82.195312 6.632812 -40.835938 7.328125 0.523438 L 24.082031 0.347656 C 23.90625 -12.390625 23.734375 -24.953125 23.734375 -37.519531 C 27.921875 -39.089844 32.109375 -40.835938 36.125 -43.277344 C 40.484375 -45.722656 44.675781 -49.039062 48.164062 -53.050781 C 49.910156 -55.144531 51.65625 -57.414062 52.875 -60.03125 C 53.226562 -60.554688 53.574219 -61.253906 53.921875 -61.949219 L 54.273438 -62.824219 L 54.621094 -63.871094 L 55.320312 -65.789062 L 56.019531 -67.710938 C 57.238281 -72.597656 57.9375 -77.65625 57.9375 -82.71875 C 57.9375 -85.335938 57.761719 -87.777344 57.414062 -90.394531 Z M 39.789062 -72.246094 L 39.4375 -70.851562 L 39.089844 -69.804688 L 38.914062 -69.28125 L 38.566406 -68.929688 C 38.390625 -68.582031 38.21875 -68.234375 38.042969 -67.882812 C 37.34375 -66.488281 36.472656 -65.265625 35.601562 -64.046875 C 32.632812 -60.730469 28.445312 -57.9375 23.734375 -55.667969 C 23.734375 -72.597656 23.90625 -89.699219 24.257812 -106.625 C 25.304688 -106.449219 26.351562 -106.101562 27.398438 -105.753906 C 28.792969 -105.230469 30.191406 -104.53125 31.410156 -103.660156 C 32.632812 -102.785156 33.855469 -101.738281 34.902344 -100.691406 C 35.949219 -99.644531 36.996094 -98.25 37.695312 -97.027344 C 38.042969 -96.328125 38.390625 -95.632812 38.742188 -94.933594 C 39.089844 -94.234375 39.4375 -93.539062 39.613281 -92.839844 C 39.960938 -91.964844 40.136719 -91.269531 40.3125 -90.394531 C 40.484375 -89.523438 40.660156 -88.824219 40.835938 -87.953125 C 41.011719 -86.207031 41.183594 -84.460938 41.183594 -82.71875 C 41.183594 -79.054688 40.660156 -75.5625 39.789062 -72.246094 Z M 39.789062 -72.246094 "/></g></g></g><g fill="#ce1710" fill-opacity="1"><g transform="translate(290.366977, 155.577303)"><g><path d="M 70.675781 -120.761719 L 53.921875 -120.410156 C 54.097656 -109.070312 54.273438 -97.550781 54.273438 -86.207031 C 53.574219 -82.019531 52.527344 -77.65625 50.957031 -73.644531 C 50.257812 -71.722656 49.386719 -69.804688 48.339844 -68.234375 C 47.292969 -66.664062 46.59375 -65.441406 45.371094 -64.394531 C 44.152344 -63.347656 42.753906 -62.648438 41.359375 -62.125 C 40.136719 -61.601562 38.914062 -61.425781 37.867188 -61.601562 C 37.34375 -61.601562 36.820312 -61.777344 36.296875 -61.949219 C 35.949219 -62.125 35.425781 -62.472656 34.726562 -62.824219 C 33.679688 -63.523438 32.457031 -64.742188 31.410156 -66.3125 C 29.144531 -69.28125 27.398438 -73.121094 26.175781 -77.132812 C 24.953125 -81.148438 24.257812 -85.683594 23.90625 -90.222656 C 23.210938 -99.296875 24.082031 -109.242188 23.90625 -119.886719 L 7.15625 -119.539062 C 7.328125 -110.117188 6.457031 -99.996094 7.15625 -89 C 7.679688 -83.589844 8.375 -78.007812 10.121094 -72.421875 C 11.691406 -66.835938 14.308594 -61.253906 17.972656 -56.191406 C 19.894531 -53.75 22.164062 -51.304688 25.128906 -49.039062 C 26.699219 -47.992188 28.269531 -47.117188 30.191406 -46.417969 C 31.933594 -45.546875 34.03125 -45.199219 35.949219 -44.847656 C 39.960938 -44.5 43.800781 -45.023438 47.292969 -46.417969 C 49.734375 -47.292969 52.003906 -48.515625 53.921875 -49.910156 C 53.921875 -47.992188 53.921875 -45.894531 53.921875 -43.976562 C 53.921875 -37.34375 53.921875 -31.410156 53.050781 -26.351562 C 52.527344 -23.90625 51.828125 -21.640625 50.78125 -19.894531 L 50.433594 -19.371094 L 50.085938 -18.671875 L 49.910156 -18.5 L 49.5625 -18.148438 C 49.5625 -18.148438 49.386719 -17.972656 49.210938 -17.800781 L 48.6875 -17.277344 L 48.515625 -17.101562 C 48.515625 -16.925781 48.515625 -17.101562 48.339844 -17.101562 C 48.339844 -16.925781 48.164062 -16.753906 47.816406 -16.753906 C 47.117188 -16.402344 46.246094 -16.054688 45.199219 -15.878906 C 44.152344 -15.707031 43.105469 -15.53125 41.882812 -15.53125 C 39.613281 -15.53125 37.519531 -15.878906 35.773438 -16.578125 C 34.902344 -16.925781 34.03125 -17.277344 33.507812 -17.800781 C 32.808594 -18.148438 32.457031 -18.671875 32.109375 -19.195312 C 31.761719 -19.71875 31.410156 -20.242188 31.238281 -20.941406 C 31.0625 -21.640625 31.0625 -22.511719 31.0625 -23.558594 L 14.136719 -23.558594 C 14.308594 -21.289062 14.484375 -19.023438 15.183594 -16.578125 C 15.707031 -14.308594 16.753906 -11.867188 18.148438 -9.773438 C 19.71875 -7.679688 21.464844 -5.757812 23.382812 -4.363281 C 25.476562 -2.792969 27.574219 -1.746094 29.667969 -0.871094 C 33.855469 0.699219 38.042969 1.222656 42.230469 1.222656 C 44.324219 1.222656 46.417969 1.046875 48.515625 0.523438 C 50.609375 0.175781 52.703125 -0.523438 54.96875 -1.570312 C 56.019531 -2.09375 57.238281 -2.617188 58.460938 -3.664062 C 58.808594 -3.839844 59.160156 -4.015625 59.332031 -4.363281 L 60.03125 -4.886719 C 60.378906 -5.234375 60.902344 -5.585938 61.253906 -6.109375 L 62.472656 -7.328125 L 63 -8.027344 L 63.523438 -8.726562 L 64.570312 -10.121094 L 65.265625 -11.519531 C 65.617188 -12.042969 65.964844 -12.566406 66.140625 -13.089844 L 66.835938 -14.484375 C 67.1875 -15.53125 67.710938 -16.402344 67.882812 -17.449219 L 68.40625 -18.847656 L 68.757812 -20.242188 C 69.105469 -21.289062 69.28125 -22.164062 69.453125 -23.210938 C 70.152344 -26.875 70.503906 -30.539062 70.503906 -34.03125 C 70.675781 -35.773438 70.675781 -37.34375 70.675781 -38.914062 L 70.675781 -43.800781 C 70.851562 -56.542969 70.851562 -69.453125 71.027344 -82.195312 C 71.027344 -95.109375 71.027344 -107.847656 70.675781 -120.761719 Z M 70.675781 -120.761719 "/></g></g></g></g></g></g><g mask="url(#772293ba52)"><g transform="matrix(1, 0, 0, 1, 66, 60)"><g clip-path="url(#87f027b692)"><g fill="#ffffff" fill-opacity="1"><g transform="translate(1.324217, 257.693252)"><g><path d="M 104.515625 -179.875 L 79.742188 -179.875 L 80 -113.292969 C 80 -102.195312 80 -91.097656 80 -80.257812 L 79.742188 -74.066406 L 74.582031 -84.386719 C 72.773438 -88 70.96875 -91.355469 69.160156 -94.96875 C 67.613281 -98.324219 65.808594 -101.9375 64.257812 -105.292969 C 63.484375 -107.097656 62.710938 -108.644531 61.9375 -110.453125 L 60.644531 -113.292969 L 59.355469 -116.128906 L 58.066406 -118.710938 L 56.773438 -121.292969 C 56 -123.097656 54.96875 -124.90625 54.195312 -126.710938 L 48.773438 -137.035156 C 45.160156 -144 41.550781 -150.710938 37.9375 -158.96875 L 14.195312 -154.582031 L 13.417969 -139.355469 L 12.644531 -123.871094 L 12.128906 -108.386719 L 11.613281 -99.871094 C 11.355469 -89.292969 11.097656 -78.96875 10.839844 -68.644531 C 10.324219 -47.742188 10.324219 -27.097656 10.324219 -6.195312 L 35.097656 -6.195312 C 35.097656 -26.839844 35.097656 -47.484375 35.613281 -68.128906 C 35.871094 -78.195312 36.128906 -88.515625 36.386719 -98.839844 L 36.902344 -105.808594 L 36.902344 -105.550781 L 37.9375 -103.226562 L 39.226562 -100.386719 C 40 -98.582031 40.773438 -96.773438 41.808594 -94.710938 C 43.355469 -91.097656 45.160156 -87.484375 46.96875 -83.871094 C 48.773438 -80.257812 50.582031 -76.644531 52.386719 -73.03125 L 57.808594 -62.453125 C 65.03125 -48.257812 72 -34.324219 78.96875 -17.03125 L 102.96875 -20.902344 C 103.226562 -26.066406 103.484375 -31.484375 103.742188 -36.644531 L 104 -44.644531 L 104.257812 -52.902344 C 104.257812 -58.324219 104.515625 -64 104.515625 -69.421875 L 104.777344 -80 C 104.777344 -91.097656 104.777344 -102.195312 104.777344 -113.292969 Z M 104.515625 -179.875 "/></g></g></g><g fill="#ffffff" fill-opacity="1"><g transform="translate(116.680211, 257.693252)"><g><path d="M 42.839844 -26.324219 C 40.773438 -26.324219 38.710938 -26.324219 36.644531 -26.324219 L 36.128906 -79.226562 C 38.96875 -79.484375 42.066406 -79.742188 45.160156 -80 C 51.097656 -80.257812 57.03125 -80.515625 62.453125 -80.515625 L 62.710938 -105.292969 C 56 -105.292969 49.808594 -105.035156 43.613281 -104.777344 C 41.03125 -104.515625 38.453125 -104.257812 35.871094 -104 L 35.355469 -155.871094 C 47.226562 -156.128906 59.097656 -156.128906 71.226562 -156.128906 L 71.226562 -180.90625 C 55.484375 -181.164062 40 -181.164062 24 -180.390625 L 10.324219 -180.390625 L 12.128906 -0.773438 L 36.902344 -1.289062 L 36.902344 -1.546875 C 38.710938 -1.546875 40.773438 -1.546875 42.582031 -1.546875 L 72.773438 -1.289062 L 72.773438 -26.066406 Z M 42.839844 -26.324219 "/></g></g></g><g fill="#ffffff" fill-opacity="1"><g transform="translate(200.03587, 257.693252)"><g><path d="M 135.484375 -185.550781 C 129.808594 -158.710938 124.648438 -131.871094 119.484375 -104.777344 C 116.90625 -91.355469 114.582031 -77.9375 112 -64.257812 L 108.90625 -46.453125 L 103.742188 -62.710938 C 101.679688 -69.421875 99.613281 -76.386719 97.550781 -83.355469 L 96.773438 -85.421875 L 96 -88 L 92.644531 -98.066406 C 92.128906 -99.871094 91.355469 -101.679688 90.839844 -103.226562 L 87.226562 -112.777344 L 86.195312 -115.097656 C 85.9375 -115.871094 85.679688 -116.648438 85.421875 -117.421875 L 83.355469 -121.808594 L 71.742188 -120.777344 L 60.128906 -120 L 55.742188 -103.742188 L 51.097656 -87.742188 L 45.9375 -69.679688 L 43.097656 -60.644531 L 42.066406 -65.292969 C 40.257812 -74.582031 38.710938 -83.871094 37.160156 -93.421875 C 34.324219 -112 31.742188 -130.839844 29.9375 -149.9375 L 5.417969 -147.355469 C 7.226562 -128 9.804688 -108.644531 12.644531 -89.550781 C 14.195312 -79.742188 16 -70.195312 17.808594 -60.644531 L 19.613281 -51.097656 L 22.710938 -37.160156 C 23.484375 -32.515625 24.515625 -28.128906 25.808594 -23.484375 L 27.355469 -16.773438 L 28.902344 -10.066406 L 40.773438 -9.546875 L 52.644531 -9.03125 L 57.808594 -24.515625 L 62.710938 -40.257812 L 67.097656 -54.710938 L 69.679688 -62.710938 L 73.550781 -76.386719 L 73.808594 -75.871094 C 75.871094 -69.160156 77.9375 -62.195312 80 -55.484375 L 83.355469 -44.902344 L 84.902344 -39.742188 C 85.164062 -39.226562 85.679688 -37.160156 86.195312 -35.613281 L 88 -30.453125 C 89.035156 -27.097656 90.066406 -23.484375 91.355469 -20.386719 L 94.96875 -10.582031 L 95.742188 -8.257812 C 96 -7.484375 96.515625 -6.710938 96.773438 -5.9375 L 98.582031 -1.804688 C 99.871094 1.03125 101.164062 3.871094 102.453125 6.710938 L 125.679688 3.097656 L 129.035156 -17.289062 L 132.386719 -37.679688 L 136.519531 -59.871094 C 138.839844 -73.292969 141.421875 -86.710938 143.742188 -100.128906 C 148.90625 -126.96875 154.066406 -153.808594 159.742188 -180.390625 Z M 135.484375 -185.550781 "/></g></g></g></g></g></g><g mask="url(#ebec84b4fb)"><g transform="matrix(1, 0, 0, 1, 57, 207)"><g clip-path="url(#37f47ee26f)"><g fill="#ce1710" fill-opacity="1"><g transform="translate(0.682099, 223.027719)"><g><path d="M 90.273438 -154.246094 L 68.875 -153.800781 C 69.097656 -139.3125 69.320312 -124.601562 69.320312 -110.113281 C 68.429688 -104.761719 67.09375 -99.191406 65.085938 -94.0625 C 64.195312 -91.613281 63.082031 -89.160156 61.742188 -87.152344 C 60.40625 -85.148438 59.515625 -83.585938 57.953125 -82.25 C 56.394531 -80.914062 54.609375 -80.019531 52.828125 -79.351562 C 51.265625 -78.683594 49.707031 -78.460938 48.371094 -78.683594 C 47.699219 -78.683594 47.03125 -78.90625 46.363281 -79.128906 C 45.917969 -79.351562 45.25 -79.796875 44.355469 -80.242188 C 43.019531 -81.136719 41.460938 -82.695312 40.121094 -84.703125 C 37.222656 -88.492188 34.996094 -93.394531 33.433594 -98.523438 C 31.875 -103.648438 30.984375 -109.445312 30.539062 -115.238281 C 29.644531 -126.832031 30.761719 -139.535156 30.539062 -153.132812 L 9.140625 -152.6875 C 9.363281 -140.648438 8.246094 -127.722656 9.140625 -113.679688 C 9.808594 -106.769531 10.699219 -99.636719 12.929688 -92.503906 C 14.933594 -85.371094 18.277344 -78.238281 22.957031 -71.773438 C 25.410156 -68.652344 28.308594 -65.53125 32.097656 -62.636719 C 34.105469 -61.296875 36.109375 -60.183594 38.5625 -59.292969 C 40.789062 -58.175781 43.464844 -57.730469 45.917969 -57.285156 C 51.042969 -56.839844 55.949219 -57.507812 60.40625 -59.292969 C 63.527344 -60.40625 66.425781 -61.964844 68.875 -63.75 C 68.875 -61.296875 68.875 -58.621094 68.875 -56.171875 C 68.875 -47.699219 68.875 -40.121094 67.761719 -33.65625 C 67.09375 -30.539062 66.203125 -27.640625 64.863281 -25.410156 L 64.417969 -24.742188 L 63.972656 -23.851562 L 63.75 -23.628906 L 63.304688 -23.179688 C 63.304688 -23.179688 63.082031 -22.957031 62.859375 -22.734375 L 62.1875 -22.066406 L 61.964844 -21.84375 C 61.964844 -21.621094 61.964844 -21.84375 61.742188 -21.84375 C 61.742188 -21.621094 61.519531 -21.398438 61.074219 -21.398438 C 60.183594 -20.953125 59.070312 -20.507812 57.730469 -20.285156 C 56.394531 -20.0625 55.054688 -19.839844 53.496094 -19.839844 C 50.597656 -19.839844 47.921875 -20.285156 45.695312 -21.175781 C 44.578125 -21.621094 43.464844 -22.066406 42.796875 -22.734375 C 41.90625 -23.179688 41.460938 -23.851562 41.011719 -24.519531 C 40.566406 -25.1875 40.121094 -25.855469 39.898438 -26.746094 C 39.675781 -27.640625 39.675781 -28.753906 39.675781 -30.089844 L 18.054688 -30.089844 C 18.277344 -27.195312 18.5 -24.296875 19.390625 -21.175781 C 20.0625 -18.277344 21.398438 -15.15625 23.179688 -12.480469 C 25.1875 -9.808594 27.417969 -7.355469 29.867188 -5.574219 C 32.542969 -3.566406 35.21875 -2.230469 37.894531 -1.113281 C 43.242188 0.890625 48.59375 1.558594 53.941406 1.558594 C 56.617188 1.558594 59.292969 1.335938 61.964844 0.667969 C 64.640625 0.222656 67.316406 -0.667969 70.214844 -2.007812 C 71.550781 -2.675781 73.109375 -3.34375 74.671875 -4.679688 C 75.117188 -4.902344 75.5625 -5.125 75.785156 -5.574219 L 76.675781 -6.242188 C 77.125 -6.6875 77.792969 -7.132812 78.238281 -7.800781 L 79.796875 -9.363281 L 80.46875 -10.253906 L 81.136719 -11.144531 L 82.472656 -12.929688 L 83.363281 -14.710938 C 83.808594 -15.378906 84.257812 -16.046875 84.480469 -16.71875 L 85.371094 -18.5 C 85.816406 -19.839844 86.484375 -20.953125 86.707031 -22.289062 L 87.375 -24.074219 L 87.824219 -25.855469 C 88.269531 -27.195312 88.492188 -28.308594 88.714844 -29.644531 C 89.605469 -34.328125 90.050781 -39.007812 90.050781 -43.464844 C 90.273438 -45.695312 90.273438 -47.699219 90.273438 -49.707031 L 90.273438 -55.949219 C 90.496094 -72.21875 90.496094 -88.714844 90.71875 -104.984375 C 90.71875 -121.480469 90.71875 -137.753906 90.273438 -154.246094 Z M 90.273438 -154.246094 "/></g></g></g><g fill="#ce1710" fill-opacity="1"><g transform="translate(100.98695, 223.027719)"><g><path d="M 37 -22.734375 C 35.21875 -22.734375 33.433594 -22.734375 31.652344 -22.734375 L 31.207031 -68.429688 C 33.65625 -68.652344 36.332031 -68.875 39.007812 -69.097656 C 44.132812 -69.320312 49.261719 -69.542969 53.941406 -69.542969 L 54.164062 -90.941406 C 48.371094 -90.941406 43.019531 -90.71875 37.671875 -90.496094 C 35.441406 -90.273438 33.210938 -90.050781 30.984375 -89.828125 L 30.539062 -134.632812 C 40.789062 -134.855469 51.042969 -134.855469 61.519531 -134.855469 L 61.519531 -156.253906 C 47.921875 -156.476562 34.550781 -156.476562 20.730469 -155.808594 L 8.914062 -155.808594 L 10.476562 -0.667969 L 31.875 -1.113281 L 31.875 -1.335938 C 33.433594 -1.335938 35.21875 -1.335938 36.777344 -1.335938 L 62.859375 -1.113281 L 62.859375 -22.511719 Z M 37 -22.734375 "/></g></g></g><g fill="#ce1710" fill-opacity="1"><g transform="translate(172.983525, 223.027719)"><g><path d="M 102.535156 3.121094 L 72.664062 -160.710938 L 51.9375 -162.046875 L 5.574219 -12.707031 L 25.855469 -6.242188 L 37.445312 -43.6875 C 43.464844 -43.464844 49.484375 -43.464844 55.277344 -43.464844 C 61.074219 -43.6875 66.871094 -43.6875 72.21875 -43.464844 L 81.359375 6.910156 Z M 54.832031 -64.863281 C 51.265625 -64.863281 47.699219 -64.863281 44.132812 -64.863281 L 59.292969 -114.125 L 68.207031 -65.085938 C 63.75 -65.085938 59.292969 -65.085938 54.832031 -64.863281 Z M 54.832031 -64.863281 "/></g></g></g><g fill="#ce1710" fill-opacity="1"><g transform="translate(281.535663, 223.027719)"><g><path d="M 75.5625 -116.578125 L 75.117188 -119.027344 L 74.226562 -121.480469 C 73.78125 -123.039062 73.109375 -124.601562 72.441406 -126.160156 C 71.996094 -127.054688 71.550781 -127.945312 71.328125 -128.613281 C 70.882812 -129.503906 70.4375 -130.171875 69.992188 -131.066406 L 68.652344 -133.292969 L 67.761719 -134.410156 C 67.539062 -134.855469 67.316406 -135.078125 66.871094 -135.523438 L 65.308594 -137.753906 C 64.640625 -138.421875 63.972656 -139.089844 63.304688 -139.757812 C 61.964844 -141.320312 60.851562 -142.210938 59.515625 -143.324219 C 57.0625 -145.332031 54.164062 -147.558594 50.820312 -149.34375 C 47.476562 -151.125 43.6875 -152.464844 40.121094 -153.132812 C 36.332031 -154.023438 32.765625 -154.023438 29.199219 -154.023438 L 9.808594 -154.46875 C 8.914062 -129.28125 8.914062 -104.316406 8.914062 -79.128906 C 8.691406 -54.164062 8.914062 -28.976562 9.363281 -4.011719 L 30.761719 -4.234375 C 30.539062 -16.046875 30.539062 -27.863281 30.3125 -39.898438 C 32.320312 -39.675781 34.550781 -39.230469 36.554688 -37.894531 C 39.453125 -36.332031 42.351562 -33.65625 45.25 -30.089844 C 50.597656 -22.957031 54.386719 -14.488281 55.726562 -5.796875 L 76.902344 -9.140625 C 74.894531 -21.621094 69.769531 -33.433594 61.964844 -43.242188 C 59.515625 -46.363281 56.839844 -49.484375 53.273438 -52.382812 L 54.609375 -53.050781 C 55.949219 -53.941406 57.285156 -55.054688 58.621094 -56.171875 L 60.628906 -57.730469 L 61.519531 -58.621094 L 62.410156 -59.515625 C 64.863281 -61.964844 67.09375 -64.640625 69.097656 -67.761719 C 70.214844 -69.320312 71.105469 -70.660156 71.996094 -72.441406 C 72.21875 -73.109375 72.664062 -74.003906 73.109375 -74.894531 L 74.226562 -77.347656 C 74.449219 -78.238281 74.671875 -79.128906 74.894531 -79.796875 C 75.117188 -80.691406 75.5625 -81.582031 75.5625 -82.25 C 76.007812 -84.035156 76.453125 -85.59375 76.675781 -87.375 L 77.125 -89.828125 C 77.125 -90.496094 77.347656 -91.390625 77.347656 -92.28125 C 77.570312 -93.839844 77.570312 -95.402344 77.792969 -97.183594 C 78.015625 -103.648438 77.347656 -110.113281 75.5625 -116.578125 Z M 56.394531 -97.851562 C 56.171875 -96.515625 56.171875 -95.402344 56.171875 -94.285156 L 55.949219 -92.726562 L 55.503906 -90.941406 C 55.503906 -89.828125 55.054688 -88.714844 54.832031 -87.824219 C 54.832031 -87.152344 54.609375 -86.707031 54.386719 -86.261719 C 54.386719 -85.59375 54.164062 -85.148438 53.941406 -84.703125 L 53.496094 -83.363281 C 53.273438 -82.917969 53.050781 -82.472656 52.828125 -82.027344 C 52.382812 -81.136719 51.9375 -80.46875 51.488281 -79.574219 C 50.152344 -78.015625 49.039062 -76.230469 47.476562 -74.894531 L 46.363281 -73.78125 L 45.027344 -72.664062 C 44.132812 -71.996094 43.242188 -71.328125 42.351562 -70.660156 L 41.011719 -69.769531 L 39.453125 -68.875 C 38.5625 -68.207031 37.445312 -67.539062 36.332031 -67.09375 C 34.328125 -65.976562 32.320312 -65.085938 30.3125 -64.195312 C 30.3125 -69.097656 30.3125 -74.226562 30.3125 -79.128906 C 30.3125 -96.960938 30.3125 -114.792969 30.761719 -132.625 C 32.542969 -132.625 34.328125 -132.402344 35.886719 -132.179688 C 37.671875 -131.734375 39.230469 -131.289062 40.789062 -130.398438 C 42.351562 -129.503906 43.910156 -128.390625 45.695312 -127.054688 C 46.585938 -126.160156 47.699219 -125.269531 48.144531 -124.824219 C 48.371094 -124.378906 48.59375 -124.15625 49.039062 -123.710938 L 49.929688 -122.59375 C 52.160156 -119.699219 53.71875 -115.683594 54.832031 -111.449219 C 55.949219 -106.992188 56.394531 -102.3125 56.394531 -97.851562 Z M 56.394531 -97.851562 "/></g></g></g></g></g></g><g fill="#ffffff" fill-opacity="1"><g transform="translate(158.106995, 457.021966)"><g/></g></g><g fill="#ffffff" fill-opacity="1"><g transform="translate(170.774963, 457.021966)"><g><path d="M 1.015625 -11.859375 L 1.015625 0 L 4.738281 0 L 4.738281 -3.640625 L 8.992188 -3.640625 L 8.992188 -6.957031 L 4.738281 -6.957031 L 4.738281 -8.5625 L 10.679688 -8.5625 L 10.679688 -11.859375 Z M 1.015625 -11.859375 "/></g></g></g><g fill="#ffffff" fill-opacity="1"><g transform="translate(190.481165, 457.021966)"><g><path d="M 1.015625 0 L 4.738281 0 L 4.738281 -4.496094 L 5.695312 -4.496094 L 7.546875 0 L 11.453125 0 L 9.335938 -5.167969 C 10.210938 -5.796875 10.679688 -6.855469 10.679688 -8.175781 C 10.679688 -10.414062 9.335938 -11.859375 6.957031 -11.859375 L 1.015625 -11.859375 Z M 4.738281 -7.363281 L 4.738281 -8.992188 L 6.101562 -8.992188 C 6.628906 -8.992188 6.957031 -8.746094 6.957031 -8.175781 C 6.957031 -7.605469 6.628906 -7.363281 6.101562 -7.363281 Z M 4.738281 -7.363281 "/></g></g></g><g fill="#ffffff" fill-opacity="1"><g transform="translate(210.512677, 457.021966)"><g><path d="M 7.039062 -8.808594 C 8.664062 -8.808594 9.742188 -7.8125 9.742188 -5.9375 C 9.742188 -4.066406 8.664062 -3.050781 7.039062 -3.050781 C 5.410156 -3.050781 4.3125 -4.066406 4.3125 -5.9375 C 4.3125 -7.8125 5.410156 -8.808594 7.039062 -8.808594 Z M 7.039062 -12.121094 C 3.296875 -12.121094 0.589844 -9.683594 0.589844 -5.9375 C 0.589844 -2.195312 3.296875 0.242188 7.039062 0.242188 C 10.78125 0.242188 13.484375 -2.195312 13.484375 -5.9375 C 13.484375 -9.683594 10.78125 -12.121094 7.039062 -12.121094 Z M 7.039062 -12.121094 "/></g></g></g><g fill="#ffffff" fill-opacity="1"><g transform="translate(233.004373, 457.021966)"><g><path d="M 0.425781 0 L 4.148438 0 L 5.003906 -6.773438 L 5.859375 0 L 9.582031 0 L 10.414062 -6.773438 L 11.269531 0 L 15.011719 0 L 13.140625 -11.859375 L 8.5625 -11.859375 L 7.707031 -5.085938 L 6.875 -11.859375 L 2.277344 -11.859375 Z M 0.425781 0 "/></g></g></g><g fill="#ffffff" fill-opacity="1"><g transform="translate(256.858311, 457.021966)"><g/></g></g><g fill="#ffffff" fill-opacity="1"><g transform="translate(269.529621, 457.021966)"><g><path d="M 0.164062 -11.859375 L 0.164062 -8.5625 L 3.558594 -8.5625 L 3.558594 0 L 7.28125 0 L 7.28125 -8.5625 L 10.679688 -8.5625 L 10.679688 -11.859375 Z M 0.164062 -11.859375 "/></g></g></g><g fill="#ffffff" fill-opacity="1"><g transform="translate(288.80884, 457.021966)"><g><path d="M 1.015625 0 L 4.738281 0 L 4.738281 -4.269531 L 8.644531 -4.269531 L 8.644531 0 L 12.367188 0 L 12.367188 -11.859375 L 8.644531 -11.859375 L 8.644531 -7.585938 L 4.738281 -7.585938 L 4.738281 -11.859375 L 1.015625 -11.859375 Z M 1.015625 0 "/></g></g></g><g fill="#ffffff" fill-opacity="1"><g transform="translate(310.629576, 457.021966)"><g><path d="M 1.015625 -11.859375 L 1.015625 0 L 10.679688 0 L 10.679688 -2.886719 L 4.738281 -2.886719 L 4.738281 -4.496094 L 8.992188 -4.496094 L 8.992188 -7.363281 L 4.738281 -7.363281 L 4.738281 -8.992188 L 10.679688 -8.992188 L 10.679688 -11.859375 Z M 1.015625 -11.859375 "/></g></g></g><g fill="#ffffff" fill-opacity="1"><g transform="translate(105.625162, 480.703389)"><g><path d="M 1.34375 0 L 7.078125 0 C 9.234375 0 10.554688 -1.078125 10.554688 -3.171875 C 10.554688 -4.679688 9.886719 -5.632812 8.707031 -6.0625 C 9.582031 -6.589844 10.046875 -7.484375 10.046875 -8.683594 C 10.046875 -10.617188 8.785156 -11.859375 6.628906 -11.859375 L 1.34375 -11.859375 Z M 2.949219 -6.589844 L 2.949219 -10.578125 L 6.304688 -10.578125 C 7.667969 -10.578125 8.441406 -9.84375 8.441406 -8.5625 C 8.441406 -7.28125 7.667969 -6.589844 6.304688 -6.589844 Z M 2.949219 -1.300781 L 2.949219 -5.289062 L 6.753906 -5.289062 C 8.117188 -5.289062 8.929688 -4.738281 8.929688 -3.296875 C 8.929688 -1.851562 8.117188 -1.300781 6.753906 -1.300781 Z M 2.949219 -1.300781 "/></g></g></g><g fill="#ffffff" fill-opacity="1"><g transform="translate(130.01012, 480.703389)"><g><path d="M 1.34375 -4.738281 C 1.34375 -1.261719 3.398438 0.265625 6.550781 0.265625 C 9.703125 0.265625 11.734375 -1.363281 11.734375 -4.738281 L 11.734375 -11.859375 L 10.128906 -11.859375 L 10.128906 -4.738281 C 10.128906 -2.296875 8.726562 -1.179688 6.550781 -1.179688 C 4.375 -1.179688 2.949219 -2.238281 2.949219 -4.738281 L 2.949219 -11.859375 L 1.34375 -11.859375 Z M 1.34375 -4.738281 "/></g></g></g><g fill="#ffffff" fill-opacity="1"><g transform="translate(156.021649, 480.703389)"><g><path d="M 1.34375 0 L 2.949219 0 L 2.949219 -9.132812 L 10.453125 0 L 11.734375 0 L 11.734375 -11.859375 L 10.128906 -11.859375 L 10.128906 -2.746094 L 2.625 -11.859375 L 1.34375 -11.859375 Z M 1.34375 0 "/></g></g></g><g fill="#ffffff" fill-opacity="1"><g transform="translate(182.033182, 480.703389)"><g><path d="M 6.914062 -12.144531 C 3.296875 -12.144531 0.914062 -9.785156 0.914062 -5.9375 C 0.914062 -2.09375 3.296875 0.242188 6.914062 0.242188 C 8.542969 0.242188 9.660156 -0.0390625 10.984375 -0.710938 L 10.984375 -6.609375 L 7.179688 -6.609375 L 7.179688 -5.328125 L 9.398438 -5.328125 L 9.398438 -1.546875 C 8.683594 -1.300781 7.972656 -1.199219 7.179688 -1.199219 C 4.332031 -1.199219 2.523438 -2.910156 2.523438 -5.9375 C 2.523438 -8.96875 4.292969 -10.679688 7.179688 -10.679688 C 8.605469 -10.679688 9.722656 -10.433594 10.984375 -9.722656 L 10.984375 -11.167969 C 9.90625 -11.796875 8.5625 -12.144531 6.914062 -12.144531 Z M 6.914062 -12.144531 "/></g></g></g><g fill="#ffffff" fill-opacity="1"><g transform="translate(207.272084, 480.703389)"><g/></g></g><g fill="#ffffff" fill-opacity="1"><g transform="translate(223.93087, 480.703389)"><g><path d="M 0.164062 -11.859375 L 0.164062 -10.414062 L 4.414062 -10.414062 L 4.414062 0 L 6.019531 0 L 6.019531 -10.414062 L 10.25 -10.414062 L 10.25 -11.859375 Z M 0.164062 -11.859375 "/></g></g></g><g fill="#ffffff" fill-opacity="1"><g transform="translate(247.299224, 480.703389)"><g><path d="M 0.164062 -11.859375 L 4.859375 0 L 6.875 0 L 11.574219 -11.859375 L 9.84375 -11.859375 L 5.878906 -1.667969 L 1.890625 -11.859375 Z M 0.164062 -11.859375 "/></g></g></g><g fill="#ffffff" fill-opacity="1"><g transform="translate(271.989164, 480.703389)"><g/></g></g><g fill="#ffffff" fill-opacity="1"><g transform="translate(288.64795, 480.703389)"><g><path d="M 0.164062 -11.859375 L 0.164062 -10.414062 L 4.414062 -10.414062 L 4.414062 0 L 6.019531 0 L 6.019531 -10.414062 L 10.25 -10.414062 L 10.25 -11.859375 Z M 0.164062 -11.859375 "/></g></g></g><g fill="#ffffff" fill-opacity="1"><g transform="translate(312.016303, 480.703389)"><g><path d="M 1.34375 -11.859375 L 1.34375 0 L 10.046875 0 L 10.046875 -1.300781 L 2.949219 -1.300781 L 2.949219 -5.289062 L 8.503906 -5.289062 L 8.503906 -6.589844 L 2.949219 -6.589844 L 2.949219 -10.578125 L 10.046875 -10.578125 L 10.046875 -11.859375 Z M 1.34375 -11.859375 "/></g></g></g><g fill="#ffffff" fill-opacity="1"><g transform="translate(335.892958, 480.703389)"><g><path d="M 4.859375 -11.859375 L 0.164062 0 L 1.890625 0 L 3.152344 -3.214844 L 8.605469 -3.214844 L 9.84375 0 L 11.574219 0 L 6.875 -11.859375 Z M 8.035156 -4.65625 L 3.722656 -4.65625 L 5.878906 -10.191406 Z M 8.035156 -4.65625 "/></g></g></g><g fill="#ffffff" fill-opacity="1"><g transform="translate(360.582898, 480.703389)"><g><path d="M 0.367188 0 L 1.972656 0 L 4.046875 -9.742188 L 6.039062 0 L 7.769531 0 L 9.804688 -9.742188 L 11.835938 0 L 13.464844 0 L 10.964844 -11.859375 L 8.929688 -11.859375 L 6.914062 -2.117188 L 4.902344 -11.859375 L 2.867188 -11.859375 Z M 0.367188 0 "/></g></g></g><g clip-path="url(#ec9d1e3b0e)"><path fill="#e8c67b" d="M 438.878906 84.398438 C 439.460938 80.757812 445.867188 81.632812 445.285156 85.269531 C 444.703125 88.910156 438.296875 88.035156 438.878906 84.398438 Z M 467.855469 188.003906 C 468.4375 184.074219 461.449219 183.054688 460.867188 186.984375 C 460.285156 190.914062 467.273438 191.933594 467.855469 188.003906 Z M 466.835938 121.941406 L 466.980469 121.503906 C 467.417969 119.320312 463.488281 118.738281 463.195312 120.921875 L 463.195312 121.359375 C 463.339844 122.375 464.214844 123.25 465.234375 123.105469 C 465.964844 123.105469 466.546875 122.667969 466.835938 121.941406 Z M 432.324219 339.339844 C 432.761719 339.195312 433.054688 338.757812 433.054688 338.175781 L 432.90625 337.738281 C 432.761719 337.15625 432.179688 336.867188 431.597656 337.011719 C 431.304688 337.011719 431.160156 337.300781 431.015625 337.449219 L 430.722656 337.882812 C 430.578125 338.320312 430.722656 338.902344 431.015625 339.195312 L 431.160156 339.339844 C 431.304688 339.484375 431.597656 339.484375 431.886719 339.484375 C 432.179688 339.484375 432.179688 339.484375 432.324219 339.339844 Z M 434.363281 297.429688 C 434.65625 295.832031 431.742188 295.394531 431.453125 296.996094 C 431.160156 298.59375 434.074219 299.175781 434.363281 297.429688 Z M 446.304688 320.132812 C 446.742188 317.222656 441.644531 316.492188 441.207031 319.402344 C 440.769531 322.3125 445.867188 323.042969 446.304688 320.132812 Z M 456.789062 249.992188 C 457.226562 246.9375 451.984375 246.210938 451.546875 249.265625 C 451.109375 252.320312 456.351562 252.902344 456.789062 249.992188 Z M 432.035156 185.53125 C 432.324219 183.203125 428.394531 182.621094 427.957031 184.949219 C 427.519531 187.277344 431.742188 187.710938 432.035156 185.53125 Z M 442.371094 206.921875 C 442.808594 204.445312 438.296875 203.71875 438.003906 206.339844 C 437.710938 208.957031 441.9375 209.394531 442.371094 206.921875 Z M 443.539062 154.972656 C 443.539062 154.972656 443.390625 154.828125 443.390625 154.828125 C 443.101562 154.535156 442.519531 154.535156 442.082031 154.679688 L 441.789062 154.828125 C 441.0625 155.117188 440.625 156.136719 441.0625 156.863281 C 441.351562 157.589844 442.371094 158.027344 443.101562 157.589844 C 443.828125 157.300781 444.265625 156.28125 443.828125 155.554688 C 443.828125 155.261719 443.683594 155.117188 443.539062 154.972656 Z M 427.957031 139.402344 C 428.394531 136.636719 423.585938 135.910156 423.152344 138.675781 C 422.714844 141.4375 427.519531 142.167969 427.957031 139.402344 Z M 464.359375 141.4375 C 465.089844 140.855469 465.234375 139.691406 464.507812 138.964844 C 463.925781 138.238281 462.757812 138.09375 462.03125 138.820312 C 461.449219 139.402344 461.304688 140.421875 461.738281 141.148438 L 461.886719 141.4375 C 462.46875 142.019531 463.34375 142.167969 464.214844 141.730469 Z M 427.664062 18.042969 C 427.957031 15.714844 424.023438 15.132812 423.585938 17.460938 C 423.152344 19.789062 427.375 20.371094 427.664062 18.042969 Z M 453.441406 271.238281 C 453.730469 269.636719 450.820312 269.199219 450.671875 270.800781 C 450.527344 272.402344 453.148438 272.839844 453.441406 271.238281 Z M 425.191406 428.832031 C 425.625 425.773438 420.382812 425.046875 419.945312 428.101562 C 419.511719 431.160156 424.753906 431.742188 425.191406 428.832031 Z M 543.722656 334.972656 C 544.742188 334.972656 545.472656 334.101562 545.472656 333.082031 C 545.472656 332.355469 545.035156 331.773438 544.304688 331.480469 L 543.871094 331.335938 C 542.851562 330.898438 541.683594 331.191406 541.246094 332.207031 C 540.8125 333.226562 541.101562 334.390625 542.121094 334.828125 C 542.558594 334.972656 542.996094 335.121094 543.433594 334.972656 C 543.433594 334.972656 543.578125 334.972656 543.722656 334.972656 Z M 529.453125 382.410156 C 530.179688 381.976562 530.472656 380.957031 530.035156 380.082031 C 530.035156 379.9375 529.890625 379.9375 529.890625 379.9375 L 529.597656 379.648438 C 528.289062 378.335938 525.667969 378.628906 525.519531 380.519531 C 525.375 382.410156 527.558594 383.429688 529.160156 382.558594 Z M 529.742188 252.902344 C 530.472656 252.46875 530.761719 251.449219 530.328125 250.574219 C 530.328125 250.429688 530.179688 250.429688 530.179688 250.429688 L 529.890625 250.136719 C 528.578125 248.828125 525.957031 249.121094 525.8125 251.011719 C 525.667969 252.902344 527.851562 253.921875 529.453125 253.050781 Z M 568.769531 340.503906 C 569.207031 337.882812 564.546875 337.15625 564.109375 339.777344 C 563.671875 342.394531 568.332031 343.121094 568.769531 340.503906 Z M 528.871094 424.609375 C 529.308594 421.699219 524.210938 420.972656 523.773438 423.882812 C 523.335938 426.792969 528.578125 427.519531 528.871094 424.609375 Z M 544.597656 468.992188 C 549.113281 466.226562 541.246094 461.28125 539.792969 465.5 C 539.5 466.226562 539.5 466.957031 539.5 467.683594 C 539.792969 469.285156 541.394531 470.300781 542.996094 469.867188 C 543.722656 469.867188 544.304688 469.429688 544.597656 468.992188 Z M 524.792969 292.628906 C 529.308594 289.863281 521.445312 284.917969 519.988281 289.136719 C 519.695312 289.863281 519.695312 290.589844 519.695312 291.320312 C 519.988281 292.921875 521.589844 293.9375 523.191406 293.503906 C 523.917969 293.355469 524.355469 293.066406 524.792969 292.628906 Z M 566.585938 394.78125 C 566.878906 392.453125 562.945312 391.871094 562.507812 394.199219 C 562.070312 396.527344 566.148438 396.960938 566.585938 394.78125 Z M 530.472656 463.316406 C 530.761719 463.027344 530.617188 462.589844 530.328125 462.300781 C 529.597656 461.570312 528.433594 461.570312 527.558594 462.300781 C 526.832031 462.882812 526.6875 463.753906 527.121094 464.480469 C 527.414062 464.773438 527.707031 465.0625 528.140625 465.210938 C 529.453125 465.5 530.761719 464.480469 530.472656 463.316406 Z M 582.457031 357.09375 C 582.75 354.617188 578.527344 354.035156 578.234375 356.511719 C 577.945312 358.984375 582.019531 359.421875 582.457031 357.09375 Z M 552.75 368.878906 C 552.898438 368.878906 552.898438 368.734375 553.042969 368.734375 C 553.917969 368.152344 554.207031 366.988281 553.625 366.113281 C 553.625 366.113281 553.480469 365.96875 553.480469 365.96875 L 553.335938 365.675781 C 552.605469 364.511719 551.003906 364.078125 549.839844 364.804688 C 548.675781 365.53125 548.238281 367.132812 548.964844 368.296875 C 549.695312 369.460938 551.296875 369.898438 552.460938 369.167969 C 552.460938 369.023438 552.605469 369.023438 552.75 368.878906 Z M 557.996094 440.617188 C 558.429688 437.996094 553.917969 437.414062 553.480469 439.890625 C 553.042969 442.363281 557.558594 443.238281 557.996094 440.617188 Z M 585.660156 330.171875 C 585.515625 331.480469 587.847656 331.917969 587.992188 330.460938 C 588.136719 329.007812 585.808594 329.007812 585.660156 330.171875 Z M 570.664062 439.746094 C 570.371094 441.925781 574.304688 442.507812 574.59375 440.328125 C 574.886719 438.144531 570.953125 437.5625 570.664062 439.746094 Z M 509.503906 6.691406 C 509.792969 4.21875 505.570312 3.636719 505.132812 6.109375 C 504.699219 8.585938 509.210938 9.167969 509.503906 6.691406 Z M 658.761719 288.84375 C 658.617188 288.992188 658.617188 289.136719 658.617188 289.425781 L 658.472656 289.71875 C 657.304688 292.917969 663.132812 293.503906 662.695312 290.300781 L 662.695312 289.863281 C 662.402344 288.84375 661.382812 288.117188 660.21875 288.117188 C 659.78125 288.117188 659.199219 288.410156 658.761719 288.84375 Z M 638.085938 285.351562 L 638.085938 284.917969 C 638.375 282.296875 634.152344 281.714844 633.570312 284.1875 L 633.425781 284.625 C 632.988281 287.246094 637.9375 287.972656 638.085938 285.351562 Z M 569.933594 293.503906 C 570.226562 293.066406 570.515625 292.628906 570.808594 292.046875 C 571.972656 288.699219 566.003906 287.828125 566.148438 291.320312 C 566.148438 291.902344 566.292969 292.484375 566.441406 292.921875 C 567.023438 293.9375 568.332031 294.375 569.351562 293.792969 C 569.5 293.792969 569.789062 293.648438 569.933594 293.503906 Z M 565.128906 219.582031 C 565.566406 218.851562 566.003906 218.125 566.148438 217.253906 C 566.292969 216.523438 565.859375 215.652344 565.273438 215.214844 L 564.691406 214.925781 C 563.964844 214.632812 563.089844 214.632812 562.363281 215.070312 C 561.78125 215.359375 561.34375 215.796875 560.90625 216.378906 C 558.578125 218.851562 563.382812 222.054688 565.128906 219.582031 Z M 581.4375 258.433594 L 581.4375 257.996094 C 581.148438 256.976562 580.128906 256.25 578.964844 256.542969 C 578.527344 256.6875 578.089844 256.976562 577.796875 257.414062 L 577.652344 257.851562 C 576.488281 260.617188 581.585938 261.34375 581.4375 258.433594 Z M 644.199219 245.335938 C 644.636719 242.570312 639.832031 241.84375 639.394531 244.609375 C 638.957031 247.375 643.765625 248.101562 644.199219 245.335938 Z M 671.285156 210.269531 C 671.578125 208.230469 667.9375 207.648438 667.644531 209.6875 C 667.355469 211.722656 670.847656 212.304688 671.285156 210.269531 Z M 621.921875 236.316406 C 622.066406 236.023438 622.210938 235.734375 622.359375 235.585938 C 624.398438 231.949219 616.242188 230.785156 617.261719 234.859375 C 617.40625 235.152344 617.40625 235.441406 617.40625 235.734375 C 617.699219 237.042969 619.152344 237.914062 620.464844 237.480469 C 621.046875 237.332031 621.484375 236.898438 621.921875 236.316406 Z M 692.984375 174.179688 C 692.109375 173.890625 691.089844 173.597656 690.070312 173.742188 C 688.761719 173.742188 687.742188 174.90625 687.742188 176.070312 C 687.742188 176.363281 687.742188 176.652344 687.886719 176.945312 C 688.175781 177.527344 688.46875 178.109375 689.050781 178.546875 C 693.128906 182.328125 697.644531 175.925781 692.984375 174.179688 Z M 555.226562 184.367188 C 555.375 184.367188 555.519531 184.367188 555.664062 184.367188 C 556.828125 184.367188 557.703125 183.347656 557.558594 182.328125 C 557.558594 181.457031 556.976562 180.726562 556.246094 180.582031 L 555.808594 180.4375 C 552.167969 179.417969 551.441406 184.21875 555.226562 184.367188 Z M 525.375 225.546875 C 525.519531 224.964844 525.375 224.382812 524.9375 224.089844 C 523.628906 223.21875 522.027344 222.925781 520.570312 223.21875 C 519.257812 223.363281 518.238281 224.382812 518.386719 225.835938 C 518.53125 227.148438 519.550781 228.164062 521.007812 228.019531 C 521.152344 228.019531 521.296875 228.019531 521.445312 228.019531 C 522.898438 227.4375 524.648438 227 525.375 225.546875 Z M 535.570312 163.121094 C 535.859375 160.648438 531.492188 159.917969 531.199219 162.539062 C 530.761719 165.011719 535.132812 165.59375 535.570312 163.121094 Z M 495.378906 147.84375 C 495.230469 147.84375 495.085938 147.84375 494.796875 147.84375 C 491.882812 147.695312 491.445312 151.042969 494.214844 151.769531 C 494.359375 151.769531 494.503906 151.917969 494.648438 151.917969 C 495.816406 152.0625 496.835938 151.335938 496.980469 150.171875 C 497.269531 149.152344 496.542969 147.988281 495.378906 147.84375 Z M 665.023438 192.953125 C 665.460938 190.332031 660.945312 189.75 660.511719 192.371094 C 660.074219 194.988281 664.585938 195.570312 665.023438 192.953125 Z M 696.625 79.011719 L 696.769531 78.578125 C 698.226562 73.921875 690.214844 72.757812 690.363281 77.558594 L 690.363281 77.996094 C 690.363281 80.90625 695.75 81.632812 696.625 79.011719 Z M 710.601562 30.992188 L 710.601562 31.429688 C 710.601562 34.339844 716.136719 35.066406 716.863281 32.304688 L 717.011719 31.867188 C 718.613281 27.355469 710.601562 26.191406 710.601562 30.992188 Z M 601.972656 201.683594 C 602.40625 198.480469 596.875 197.753906 596.4375 200.808594 C 596 203.863281 601.390625 204.882812 601.972656 201.683594 Z M 668.226562 241.699219 C 668.664062 238.933594 663.859375 238.207031 663.421875 240.972656 C 662.984375 243.734375 667.792969 244.316406 668.226562 241.699219 Z M 671.285156 156.574219 C 671.140625 156.425781 671.140625 156.425781 670.996094 156.28125 C 670.121094 155.261719 668.519531 155.117188 667.355469 155.699219 L 667.0625 155.84375 C 664.734375 157.007812 666.1875 160.355469 668.519531 160.648438 C 670.847656 160.9375 673.179688 158.464844 671.285156 156.574219 Z M 656.722656 137.363281 C 657.304688 133.871094 651.042969 132.855469 650.609375 136.492188 C 650.171875 140.128906 656.289062 140.855469 656.722656 137.363281 Z M 637.210938 169.523438 C 638.085938 168.796875 638.230469 167.339844 637.503906 166.46875 C 636.773438 165.59375 635.316406 165.449219 634.445312 166.175781 C 633.570312 166.90625 633.425781 168.070312 634.007812 168.941406 C 634.296875 169.960938 635.464844 170.398438 636.335938 170.105469 C 636.628906 169.960938 636.917969 169.816406 637.210938 169.523438 Z M 606.632812 145.367188 C 607.214844 141.730469 600.804688 140.710938 600.222656 144.496094 C 599.640625 148.277344 606.046875 149.007812 606.632812 145.367188 Z M 698.664062 119.757812 C 699.246094 116.121094 692.835938 115.101562 692.253906 118.738281 C 691.671875 122.375 698.078125 123.394531 698.664062 119.757812 Z M 610.269531 174.761719 C 611.144531 174.761719 611.875 173.890625 611.726562 173.015625 C 611.726562 172.433594 611.289062 171.851562 610.707031 171.5625 L 610.269531 171.269531 C 607.214844 169.667969 606.339844 175.34375 609.835938 174.761719 C 609.835938 174.761719 610.125 174.761719 610.269531 174.761719 Z M 506.589844 183.929688 C 502.660156 182.910156 501.929688 188.148438 506.007812 188.148438 C 506.152344 188.148438 506.300781 188.148438 506.445312 188.148438 C 507.609375 188.148438 508.484375 187.128906 508.484375 185.964844 C 508.484375 185.09375 507.902344 184.21875 507.027344 183.929688 Z M 531.636719 99.820312 L 531.636719 99.386719 C 531.492188 98.074219 530.472656 97.203125 529.160156 97.347656 C 528.289062 97.492188 527.558594 97.929688 527.269531 98.804688 L 527.121094 99.238281 C 526.539062 101.714844 531.347656 102.441406 531.636719 99.820312 Z M 542.996094 122.230469 C 539.5 123.105469 542.414062 128.488281 545.617188 126.304688 C 548.238281 124.703125 545.761719 121.503906 542.996094 122.230469 Z M 507.902344 99.820312 C 508.339844 99.53125 508.339844 98.949219 508.046875 98.511719 C 507.902344 97.785156 507.320312 97.058594 506.589844 96.765625 L 506.007812 96.621094 C 501.785156 95.3125 501.058594 101.277344 505.28125 101.132812 C 505.425781 101.132812 505.71875 101.132812 505.863281 101.132812 C 506.882812 100.984375 507.609375 100.402344 507.902344 99.820312 Z M 490.136719 16.585938 C 490.574219 13.53125 485.332031 12.804688 484.894531 15.859375 C 484.457031 18.914062 489.699219 19.496094 490.136719 16.585938 Z M 478.484375 84.542969 C 478.632812 84.542969 478.777344 84.6875 478.921875 84.6875 C 480.671875 85.707031 482.710938 84.980469 483.726562 83.378906 C 484.746094 81.632812 484.019531 79.59375 482.417969 78.578125 C 481.691406 78.140625 480.816406 77.996094 479.941406 78.140625 L 479.503906 78.140625 C 477.757812 77.847656 476.15625 79.011719 475.863281 80.757812 C 475.574219 82.652344 476.738281 84.253906 478.484375 84.542969 Z M 452.710938 52.820312 C 452.855469 50.785156 451.253906 49.039062 449.070312 48.890625 C 448.78125 48.890625 448.632812 48.890625 448.34375 48.890625 L 447.90625 48.890625 C 446.160156 49.039062 444.847656 50.492188 444.847656 52.238281 C 444.847656 53.546875 445.722656 54.710938 447.03125 55.148438 L 447.46875 55.292969 C 449.363281 56.167969 451.546875 55.292969 452.421875 53.402344 C 452.710938 53.257812 452.710938 52.964844 452.710938 52.820312 Z M 494.941406 53.402344 C 495.085938 53.402344 495.230469 53.402344 495.378906 53.402344 C 496.6875 53.402344 497.707031 52.238281 497.707031 50.929688 C 497.707031 49.910156 496.980469 49.039062 496.105469 48.746094 L 495.667969 48.601562 C 491.300781 47.292969 490.425781 53.257812 494.941406 53.402344 Z M 527.558594 66.9375 L 527.121094 66.9375 C 525.375 66.5 523.628906 67.519531 523.046875 69.410156 C 522.464844 71.300781 523.628906 72.902344 525.519531 73.484375 C 525.667969 73.484375 525.957031 73.628906 526.105469 73.628906 L 526.539062 73.628906 C 528.289062 74.066406 530.035156 72.902344 530.472656 71.15625 C 530.910156 69.410156 529.742188 67.664062 527.996094 67.226562 C 527.851562 66.9375 527.707031 66.9375 527.558594 66.9375 Z M 556.390625 49.183594 C 558.429688 47.875 557.703125 45.546875 555.664062 44.527344 L 555.082031 44.234375 C 553.335938 43.21875 550.714844 44.964844 551.148438 46.710938 L 551.296875 47.292969 C 551.734375 49.039062 553.625 50.054688 555.375 49.621094 C 555.808594 49.472656 556.101562 49.328125 556.390625 49.183594 Z M 551.878906 10.183594 L 551.878906 9.75 C 551.734375 8.148438 550.277344 6.839844 548.675781 6.984375 C 547.507812 7.128906 546.492188 7.855469 546.054688 8.875 L 545.90625 9.3125 C 544.886719 12.660156 551.734375 13.675781 551.878906 10.183594 Z M 627.890625 401.183594 C 628.328125 398.273438 623.230469 397.542969 622.792969 400.457031 C 622.359375 403.367188 627.453125 404.09375 627.890625 401.183594 Z M 598.183594 357.820312 C 597.601562 362.039062 605.027344 363.203125 605.757812 358.984375 C 606.484375 354.761719 598.914062 353.453125 598.183594 357.820312 Z M 596.875 446.730469 C 597.164062 444.402344 593.234375 443.820312 592.796875 446.148438 C 592.359375 448.476562 596.582031 449.058594 596.875 446.730469 Z M 642.597656 320.714844 C 642.746094 320.714844 642.890625 320.859375 643.035156 320.859375 C 644.347656 321.585938 645.949219 321.003906 646.675781 319.695312 C 647.40625 318.386719 646.820312 316.785156 645.511719 316.058594 C 644.929688 315.765625 644.347656 315.621094 643.765625 315.765625 L 643.328125 315.765625 C 642.015625 315.765625 640.851562 316.929688 640.851562 318.238281 C 640.851562 319.402344 641.578125 320.421875 642.597656 320.714844 Z M 653.957031 367.714844 C 654.101562 367.714844 654.25 367.714844 654.25 367.859375 C 654.976562 368.003906 655.851562 367.421875 655.996094 366.695312 C 655.996094 366.257812 655.996094 365.96875 655.703125 365.675781 L 655.558594 365.386719 C 655.414062 365.242188 655.121094 364.949219 654.832031 364.949219 C 654.394531 364.511719 653.664062 364.511719 653.230469 364.949219 L 653.082031 365.09375 C 651.773438 365.675781 652.648438 367.277344 653.957031 367.714844 Z M 661.675781 418.207031 C 661.964844 416.023438 658.035156 415.296875 657.742188 417.625 C 657.453125 419.953125 661.238281 420.535156 661.675781 418.207031 Z M 659.34375 445.128906 C 659.78125 442.074219 654.539062 441.34375 654.101562 444.402344 C 653.664062 447.457031 658.910156 448.183594 659.34375 445.128906 Z M 617.117188 477.578125 C 615.367188 477.578125 613.910156 479.03125 614.058594 480.777344 C 614.058594 482.089844 614.929688 483.253906 616.242188 483.691406 L 616.679688 483.835938 C 618.28125 484.855469 620.464844 484.273438 621.484375 482.527344 C 622.503906 480.925781 621.921875 478.742188 620.171875 477.722656 C 619.445312 477.285156 618.425781 477.140625 617.550781 477.285156 C 617.550781 477.578125 617.40625 477.578125 617.117188 477.578125 Z M 660.800781 345.742188 C 661.382812 345.160156 661.53125 344.285156 661.09375 343.558594 L 660.945312 343.414062 C 659.636719 341.085938 655.703125 341.230469 655.269531 343.996094 C 654.832031 346.761719 658.617188 347.925781 660.511719 346.03125 Z M 593.378906 57.039062 C 594.398438 56.3125 594.691406 54.859375 594.109375 53.839844 C 594.109375 53.695312 593.960938 53.695312 593.960938 53.546875 L 593.816406 53.257812 C 592.214844 51.21875 588.574219 52.09375 588.28125 54.421875 C 587.992188 56.75 591.195312 58.640625 593.234375 57.1875 C 593.234375 57.1875 593.234375 57.1875 593.378906 57.039062 Z M 617.699219 95.3125 C 618.136719 92.109375 612.601562 91.382812 612.164062 94.4375 C 611.726562 97.640625 617.261719 98.367188 617.699219 95.3125 Z M 644.054688 45.398438 L 643.765625 45.546875 C 640.707031 47.144531 644.347656 51.65625 647.257812 49.621094 C 648.132812 49.039062 648.714844 48.308594 649.152344 47.4375 C 650.609375 44.527344 645.65625 42.78125 644.054688 45.398438 Z M 697.933594 14.40625 L 697.933594 13.96875 C 697.933594 12.511719 696.769531 11.347656 695.3125 11.347656 C 694.148438 11.347656 693.128906 12.078125 692.835938 13.242188 L 692.691406 13.675781 C 691.816406 16.585938 697.933594 17.460938 697.933594 14.40625 Z M 672.597656 98.65625 C 671.429688 99.238281 672.015625 100.984375 673.324219 101.132812 C 674.636719 101.277344 675.65625 99.96875 674.78125 99.09375 L 674.34375 98.65625 C 674.050781 98.367188 673.617188 98.222656 673.324219 98.511719 Z M 641.433594 82.214844 C 640.269531 83.378906 641.289062 85.269531 642.890625 85.417969 C 644.492188 85.5625 646.09375 84.105469 645.21875 82.796875 C 644.929688 82.214844 644.636719 81.777344 644.199219 81.195312 C 643.765625 80.757812 643.179688 80.613281 642.746094 80.90625 C 642.308594 81.339844 641.871094 81.777344 641.433594 82.214844 Z M 614.640625 32.449219 C 614.058594 31.722656 613.765625 30.847656 613.183594 30.265625 C 612.746094 29.828125 612.164062 29.683594 611.582031 29.828125 C 608.816406 30.410156 609.6875 33.46875 610.707031 35.066406 C 612.457031 37.394531 616.824219 34.632812 614.640625 32.449219 Z M 633.425781 9.457031 C 632.988281 12.078125 637.648438 12.804688 638.085938 10.183594 C 638.523438 7.566406 633.714844 6.839844 633.425781 9.457031 Z M 676.382812 29.394531 C 676.671875 27.5 673.324219 26.917969 673.035156 28.957031 C 672.742188 30.992188 676.089844 31.285156 676.382812 29.394531 Z M 584.640625 111.316406 C 584.789062 110.734375 584.789062 110.007812 584.640625 109.425781 C 584.640625 109.28125 584.351562 109.136719 584.058594 109.136719 C 583.914062 109.136719 583.914062 109.28125 583.914062 109.28125 C 583.625 109.863281 583.476562 110.445312 583.332031 111.027344 C 583.039062 111.898438 584.496094 112.046875 584.640625 111.316406 Z M 595.273438 3.78125 C 595.710938 0.726562 590.46875 0 590.03125 3.054688 C 589.59375 6.109375 594.835938 6.839844 595.273438 3.78125 Z M 636.191406 127.035156 C 636.484375 125.289062 633.425781 124.851562 633.132812 126.597656 C 632.84375 128.34375 635.902344 128.78125 636.191406 127.035156 Z M 448.199219 445.710938 L 448.199219 445.273438 C 447.90625 444.253906 446.742188 443.527344 445.722656 443.820312 C 445.285156 443.964844 444.847656 444.253906 444.558594 444.691406 L 444.410156 445.128906 C 443.390625 447.894531 448.488281 448.621094 448.199219 445.710938 Z M 448.34375 400.308594 C 448.488281 400.019531 448.632812 399.726562 448.78125 399.582031 C 450.820312 395.945312 442.664062 394.78125 443.683594 398.855469 C 443.828125 399.144531 443.828125 399.4375 443.828125 399.726562 C 444.121094 401.039062 445.578125 401.910156 446.886719 401.472656 C 447.46875 401.183594 448.050781 400.746094 448.34375 400.308594 Z M 428.101562 370.332031 L 428.246094 369.898438 C 429.703125 365.242188 421.695312 364.078125 421.839844 368.878906 L 421.839844 369.316406 C 421.839844 372.226562 427.226562 373.097656 428.101562 370.332031 Z M 473.390625 332.644531 C 473.972656 329.007812 467.566406 328.132812 466.980469 331.773438 C 466.398438 335.410156 472.953125 336.285156 473.390625 332.644531 Z M 477.03125 362.039062 C 477.902344 362.039062 478.632812 361.167969 478.484375 360.292969 C 478.484375 359.710938 478.050781 359.128906 477.46875 358.839844 C 477.320312 358.691406 477.175781 358.691406 477.03125 358.546875 C 473.972656 356.945312 473.097656 362.621094 476.449219 362.039062 C 476.738281 362.183594 476.882812 362.183594 477.03125 362.039062 Z M 484.457031 282.589844 C 484.894531 279.386719 479.359375 278.660156 478.921875 281.714844 C 478.484375 284.769531 484.019531 285.789062 484.457031 282.589844 Z M 503.097656 314.3125 C 503.386719 312.5625 500.328125 312.128906 500.039062 313.875 C 499.746094 315.621094 502.804688 316.058594 503.097656 314.3125 Z M 480.234375 586.132812 C 480.960938 585.695312 481.253906 584.675781 480.816406 583.804688 C 480.816406 583.65625 480.671875 583.65625 480.671875 583.65625 L 480.378906 583.367188 C 479.070312 582.058594 476.449219 582.347656 476.300781 584.238281 C 476.15625 586.132812 478.339844 587.152344 479.941406 586.277344 Z M 475.429688 626.003906 C 479.941406 623.238281 472.078125 618.289062 470.621094 622.511719 C 470.332031 623.238281 470.332031 623.964844 470.332031 624.691406 C 470.621094 626.292969 472.222656 627.3125 473.828125 626.875 C 474.554688 626.730469 474.992188 626.4375 475.429688 626.003906 Z M 609.398438 622.074219 C 609.253906 622.21875 609.253906 622.363281 609.253906 622.65625 L 609.105469 622.945312 C 607.941406 626.148438 613.765625 626.730469 613.328125 623.527344 L 613.328125 623.09375 C 613.039062 622.074219 612.019531 621.347656 611 621.492188 C 610.417969 621.492188 609.835938 621.78125 609.398438 622.074219 Z M 588.71875 618.582031 L 588.71875 618.144531 C 589.011719 615.527344 584.789062 614.945312 584.207031 617.417969 L 584.058594 617.855469 C 583.625 620.617188 588.574219 621.347656 588.71875 618.582031 Z M 520.570312 626.875 C 520.859375 626.4375 521.152344 626.003906 521.445312 625.421875 C 522.609375 622.074219 516.636719 621.199219 516.785156 624.691406 C 516.785156 625.273438 516.929688 625.855469 517.222656 626.292969 C 517.804688 627.3125 519.113281 627.75 520.132812 627.167969 C 520.132812 627.167969 520.425781 627.019531 520.570312 626.875 Z M 515.765625 552.808594 C 516.203125 552.082031 516.636719 551.355469 516.785156 550.480469 C 516.929688 549.753906 516.492188 548.878906 515.910156 548.445312 C 515.765625 548.296875 515.617188 548.296875 515.328125 548.152344 C 514.601562 547.863281 513.726562 547.863281 512.996094 548.296875 C 512.414062 548.589844 511.832031 549.027344 511.394531 549.609375 C 509.210938 552.226562 514.015625 555.429688 515.765625 552.808594 Z M 532.074219 591.808594 L 532.074219 591.371094 C 531.78125 590.351562 530.761719 589.625 529.597656 589.914062 C 529.160156 590.0625 528.726562 590.351562 528.433594 590.789062 L 528.289062 591.226562 C 527.121094 593.84375 532.21875 594.570312 532.074219 591.808594 Z M 594.691406 578.710938 C 595.128906 575.945312 590.320312 575.21875 589.886719 577.984375 C 589.449219 580.746094 594.398438 581.476562 594.691406 578.710938 Z M 621.921875 543.640625 C 622.210938 541.605469 618.570312 541.023438 618.28125 543.058594 C 617.988281 545.097656 621.484375 545.679688 621.921875 543.640625 Z M 572.554688 569.6875 C 572.703125 569.398438 572.847656 569.105469 572.992188 568.960938 C 575.03125 565.324219 566.878906 564.160156 567.894531 568.234375 C 568.042969 568.523438 568.042969 568.816406 568.042969 569.105469 C 568.480469 570.417969 569.789062 571.289062 571.246094 570.851562 C 571.683594 570.5625 572.121094 570.125 572.554688 569.6875 Z M 643.617188 507.410156 C 642.746094 507.117188 641.726562 506.828125 640.707031 506.972656 C 639.394531 506.972656 638.375 508.136719 638.523438 509.445312 C 638.523438 509.738281 638.523438 510.027344 638.667969 510.171875 C 638.957031 510.753906 639.25 511.335938 639.832031 511.773438 C 643.617188 515.703125 648.277344 509.15625 643.617188 507.410156 Z M 506.445312 517.738281 C 507.609375 517.738281 508.484375 516.722656 508.339844 515.703125 C 508.339844 514.828125 507.753906 514.101562 507.027344 513.957031 L 506.589844 513.8125 C 502.804688 512.792969 502.222656 517.738281 506.007812 517.886719 C 506.007812 517.738281 506.152344 517.738281 506.445312 517.738281 Z M 476.011719 558.921875 C 476.15625 558.339844 476.011719 557.757812 475.574219 557.464844 C 474.261719 556.59375 472.660156 556.300781 471.207031 556.59375 C 469.894531 556.738281 469.019531 557.902344 469.167969 559.210938 C 469.3125 560.519531 470.476562 561.394531 471.789062 561.25 C 471.789062 561.25 471.933594 561.25 471.933594 561.25 C 473.535156 560.8125 475.28125 560.230469 476.011719 558.921875 Z M 486.058594 496.496094 C 486.496094 494.019531 481.980469 493.292969 481.691406 495.765625 C 481.398438 498.242188 485.765625 498.96875 486.058594 496.496094 Z M 446.011719 481.214844 C 445.867188 481.214844 445.722656 481.214844 445.429688 481.214844 C 442.519531 481.070312 442.082031 484.417969 444.847656 485.144531 L 445.285156 485.289062 C 446.449219 485.4375 447.46875 484.707031 447.613281 483.542969 C 447.90625 482.378906 447.179688 481.363281 446.011719 481.214844 Z M 615.660156 526.324219 C 616.097656 523.707031 611.582031 523.125 611.144531 525.597656 C 610.707031 528.070312 615.222656 528.945312 615.660156 526.324219 Z M 552.605469 535.054688 C 553.042969 531.855469 547.507812 531.128906 547.074219 534.183594 C 546.636719 537.238281 552.023438 538.113281 552.605469 535.054688 Z M 618.863281 574.925781 C 619.300781 572.164062 614.496094 571.433594 614.058594 574.199219 C 613.621094 576.964844 618.425781 577.691406 618.863281 574.925781 Z M 621.921875 489.945312 L 621.628906 489.65625 C 620.757812 488.636719 619.152344 488.492188 617.988281 489.074219 L 617.699219 489.21875 C 615.367188 490.382812 616.824219 493.585938 619.152344 494.019531 C 621.484375 494.457031 623.8125 491.691406 621.921875 489.945312 Z M 607.359375 470.59375 C 607.941406 467.101562 601.679688 466.082031 601.242188 469.71875 C 600.804688 473.359375 606.921875 474.230469 607.359375 470.59375 Z M 587.847656 502.898438 C 588.71875 502.167969 588.867188 500.714844 587.992188 499.839844 C 587.261719 498.96875 585.808594 498.824219 584.933594 499.695312 C 584.207031 500.421875 583.914062 501.585938 584.496094 502.460938 C 584.789062 503.480469 585.953125 503.917969 586.828125 503.625 C 587.261719 503.335938 587.554688 503.1875 587.847656 502.898438 Z M 557.265625 478.742188 C 557.847656 475.105469 551.441406 474.230469 550.859375 477.867188 C 550.277344 481.507812 556.683594 482.378906 557.265625 478.742188 Z M 560.761719 508.136719 C 561.632812 508.136719 562.363281 507.261719 562.21875 506.390625 C 562.21875 505.808594 561.78125 505.226562 561.199219 504.933594 C 561.050781 504.933594 560.90625 504.789062 560.761719 504.644531 C 557.703125 503.042969 556.828125 508.71875 560.179688 508.136719 C 560.46875 508.136719 560.617188 508.136719 560.761719 508.136719 Z M 457.664062 517.304688 L 457.226562 517.15625 C 453.292969 516.140625 452.566406 521.378906 456.644531 521.378906 C 456.789062 521.378906 456.933594 521.378906 457.082031 521.378906 C 458.246094 521.378906 459.117188 520.359375 459.117188 519.195312 C 458.972656 518.46875 458.535156 517.59375 457.664062 517.304688 Z M 469.167969 432.757812 C 465.671875 433.632812 468.585938 439.015625 471.789062 436.832031 C 474.410156 435.234375 471.789062 432.03125 469.167969 432.757812 Z M 586.828125 460.40625 C 587.117188 458.660156 584.058594 458.222656 583.769531 459.972656 C 583.476562 461.71875 586.535156 462.007812 586.828125 460.40625 Z M 435.238281 615.816406 C 435.675781 612.617188 430.140625 611.886719 429.703125 614.945312 C 429.265625 618 434.65625 619.019531 435.238281 615.816406 Z M 435.238281 615.816406 " fill-opacity="1" fill-rule="nonzero"/></g></svg>