<svg xmlns="http://www.w3.org/2000/svg" xmlns:xlink="http://www.w3.org/1999/xlink" width="1080" zoomAndPan="magnify" viewBox="0 0 810 1439.999935" height="1920" preserveAspectRatio="xMidYMid meet" version="1.0"><path fill="#ffd734" d="M 608.207031 754.535156 C 599.542969 824.941406 535.277344 875.019531 464.574219 866.34375 C 393.871094 857.664062 336.667969 850.601562 352.269531 723.050781 C 360.9375 652.523438 436.960938 593.398438 507.542969 602.074219 C 578.121094 610.75 616.753906 684.007812 608.207031 754.535156 Z M 608.207031 754.535156 " fill-opacity="1" fill-rule="nonzero"/><path fill="#421490" d="M 634.832031 627.238281 C 621.953125 611.496094 588.890625 581.5 565.738281 568.484375 C 539.363281 553.734375 507.046875 550.632812 479.929688 556.957031 C 452.6875 563.277344 430.398438 578.152344 412.816406 596 C 402.417969 606.660156 393.378906 618.808594 389.910156 633.0625 C 381.117188 669.257812 409.351562 708.300781 421.359375 746.605469 C 433.992188 786.640625 440.183594 797.921875 436.960938 837.214844 C 435.351562 856.179688 435.230469 877.5 450.335938 893.734375 C 465.441406 909.972656 496.148438 922.863281 518.808594 925.46875 C 541.714844 928.195312 580.101562 906.503906 593.96875 892.992188 C 673.835938 815.148438 715.6875 726.277344 634.832031 627.238281 Z M 531.191406 892.746094 C 468.289062 884.441406 488.472656 809.199219 466.804688 744.746094 C 445.132812 680.289062 399.941406 593.894531 459.621094 592.777344 C 673.835938 588.8125 639.289062 723.300781 626.410156 792.34375 C 613.53125 861.382812 594.09375 901.050781 531.191406 892.746094 Z M 531.191406 892.746094 " fill-opacity="1" fill-rule="nonzero"/><path fill="#f2bcd6" d="M 201.453125 922.492188 C 158.609375 1002.195312 290.605469 1053.140625 351.03125 1070.246094 C 411.578125 1087.351562 460.613281 1178.085938 505.3125 1102.347656 C 540.601562 1042.605469 499.492188 987.570312 403.652344 891.257812 C 307.816406 794.945312 244.417969 842.914062 201.453125 922.492188 Z M 429.78125 945.671875 C 484.386719 1004.300781 499.988281 1067.890625 480.050781 1089.707031 C 460.117188 1111.523438 437.085938 1090.574219 400.433594 1057.230469 C 363.90625 1023.886719 314.378906 1010.003906 260.390625 983.601562 C 193.28125 950.753906 255.6875 872.664062 310.910156 868.449219 C 366.136719 864.234375 375.175781 887.042969 429.78125 945.671875 Z M 429.78125 945.671875 " fill-opacity="1" fill-rule="nonzero"/><path fill="#e6333a" d="M 290.480469 519.398438 C 225.722656 512.085938 132.855469 556.832031 119.480469 621.660156 C 93.976562 744.371094 154.398438 732.226562 238.351562 781.3125 C 304.101562 819.613281 356.105469 841.800781 387.433594 790.484375 C 418.761719 739.167969 353.878906 715.492188 351.402344 646.820312 C 348.925781 577.902344 355.117188 526.835938 290.480469 519.398438 Z M 304.84375 630.085938 C 298.777344 692.3125 386.8125 731.109375 371.210938 764.082031 C 355.609375 797.050781 301.871094 779.453125 230.179688 744.125 C 158.484375 708.796875 142.019531 700.863281 141.398438 653.640625 C 140.78125 606.414062 197.488281 555.839844 237.484375 551.003906 C 276.363281 546.417969 312.148438 555.21875 304.84375 630.085938 Z M 304.84375 630.085938 " fill-opacity="1" fill-rule="nonzero"/><path fill="#421490" d="M 221.015625 833.121094 C 218.789062 851.21875 202.195312 864.109375 184.117188 861.878906 C 165.914062 859.648438 151.179688 857.914062 155.265625 825.066406 C 157.496094 806.96875 177.058594 791.722656 195.261719 793.953125 C 213.464844 796.183594 223.246094 815.027344 221.015625 833.121094 Z M 143.75 900.675781 C 141.152344 894.230469 125.671875 887.785156 117.253906 900.675781 C 108.832031 913.570312 152.789062 976.289062 152.789062 976.289062 C 152.789062 976.289062 191.175781 910.839844 176.8125 896.089844 C 160.34375 879.605469 143.75 900.675781 143.75 900.675781 Z M 143.75 900.675781 " fill-opacity="1" fill-rule="nonzero"/></svg>